<svg width="154" height="72" viewBox="0 0 154 72" fill="none" xmlns="http://www.w3.org/2000/svg">
<g clip-path="url(#clip0_1455_275)">
<g clip-path="url(#clip1_1455_275)">
<path d="M44.2466 36.3888C48.0731 37.2133 50.4346 38.4876 50.4346 40.3008C50.4346 42.1139 48.0731 43.3883 44.2466 44.2127C47.1282 46.751 48.5051 48.9805 47.5543 50.5508C46.6035 52.1211 43.8901 52.0988 40.1438 50.9885C41.3083 54.5605 41.3316 57.1477 39.6848 58.0543C38.0379 58.9609 35.6996 57.648 33.0374 54.9003C32.1728 58.549 30.8362 60.8008 28.9346 60.8008C27.033 60.8008 25.6965 58.5491 24.8318 54.9006C22.1698 57.6481 19.8316 58.9609 18.1848 58.0543C16.5379 57.1477 16.5612 54.5605 17.7257 50.9885C13.9795 52.0988 11.2661 52.1211 10.3152 50.5508C9.36442 48.9805 10.7413 46.7511 13.6229 44.2128C9.79618 43.3883 7.43457 42.114 7.43457 40.3008C7.43457 38.4876 9.79618 37.2132 13.6229 36.3888C10.7413 33.8505 9.36442 31.621 10.3152 30.0508C11.2661 28.4805 13.9795 28.5028 17.7257 29.6131C16.5612 26.0411 16.5379 23.4539 18.1848 22.5473C19.8316 21.6407 22.1698 22.9535 24.8318 25.7009C25.6965 22.0524 27.033 19.8008 28.9346 19.8008C30.8362 19.8008 32.1728 22.0526 33.0374 25.7013C35.6996 22.9536 38.0379 21.6406 39.6848 22.5473C41.3316 23.4539 41.3083 26.0411 40.1438 29.6131C43.8901 28.5028 46.6035 28.4805 47.5543 30.0508C48.5051 31.6211 47.1282 33.8505 44.2466 36.3888Z" fill="#3F1390"/>
</g>
<path d="M33.3776 8.08201C33.3775 8.06994 33.3774 8.06391 33.3774 8.06111C33.3704 6.19632 35.9117 5.42572 36.9415 6.98039C36.9431 6.98272 36.9464 6.98776 36.953 6.99785C36.9705 7.02442 36.9793 7.03771 36.9875 7.05018C41.7894 14.3297 50.2433 18.5938 59.321 18.3151C59.3365 18.3146 59.3531 18.314 59.3862 18.313C59.3988 18.3126 59.405 18.3124 59.4079 18.3123C61.349 18.2561 62.0837 20.6792 60.4384 21.7105C60.4359 21.712 60.4305 21.7153 60.4199 21.722C60.3918 21.7395 60.3777 21.7483 60.3645 21.7565C52.6608 26.5663 47.9988 34.8074 48.0485 43.528C48.0485 43.5429 48.0486 43.5588 48.0489 43.5906C48.049 43.6027 48.049 43.6087 48.049 43.6115C48.0561 45.4763 45.5147 46.2469 44.4849 44.6922C44.4834 44.6899 44.48 44.6849 44.4734 44.6748C44.4559 44.6482 44.4472 44.6349 44.439 44.6225C39.637 37.3429 31.1831 33.0788 22.1055 33.3576C22.0899 33.3581 22.0734 33.3586 22.0403 33.3596C22.0277 33.36 22.0214 33.3602 22.0185 33.3603C20.0774 33.4165 19.3427 30.9935 20.9881 29.9622C20.9906 29.9606 20.9959 29.9573 21.0066 29.9507C21.0347 29.9331 21.0487 29.9244 21.0619 29.9161C28.7657 25.1064 33.4277 16.8652 33.378 8.14467C33.3779 8.12973 33.3778 8.11382 33.3776 8.08201Z" fill="#6E38D9"/>
<g clip-path="url(#clip2_1455_275)">
<path d="M38.8096 37.3422C37.9029 34.2672 39.1331 30.6797 43.041 30.6797C46.9488 30.6797 48.1792 34.2672 47.2724 37.3422C46.6028 39.613 44.7795 44.958 43.8716 47.5985C43.7677 47.9005 43.9728 48.2178 44.2805 48.34C44.5881 48.4622 44.9588 48.3713 45.1093 48.0878C46.4255 45.6086 49.1002 40.5994 50.3108 38.5422C51.9501 35.7565 55.4805 34.0492 58.2438 36.684C61.007 39.3187 59.2165 42.685 56.2949 44.248C54.1374 45.4022 48.8839 47.9526 46.2838 49.2075C45.9864 49.3511 45.891 49.7045 46.0192 49.9979C46.1474 50.2912 46.4802 50.4868 46.7969 50.3878C49.5662 49.522 55.172 47.7835 57.5535 47.1451C60.7785 46.2805 64.541 47.4536 64.541 51.1797C64.541 54.9058 60.7785 56.0789 57.5535 55.2143C55.172 54.5758 49.5662 52.8373 46.7969 51.9716C46.4802 51.8726 46.1474 52.0681 46.0192 52.3615C45.891 52.6548 45.9864 53.0083 46.2838 53.1518C48.8839 54.4068 54.1374 56.9571 56.2949 58.1114C59.2165 59.6744 61.0071 63.0406 58.2438 65.6754C55.4805 68.3101 51.9501 66.6029 50.3108 63.8172C49.1003 61.7599 46.4255 56.7508 45.1093 54.2716C44.9588 53.9881 44.5881 53.8972 44.2805 54.0194C43.9728 54.1416 43.7677 54.4589 43.8716 54.7609C44.7795 57.4014 46.6029 62.7464 47.2724 65.0172C48.1792 68.0922 46.9489 71.6797 43.041 71.6797C39.1332 71.6797 37.9028 68.0922 38.8096 65.0172C39.4792 62.7464 41.3025 57.4014 42.2105 54.7608C42.3143 54.4589 42.1092 54.1416 41.8016 54.0194C41.4939 53.8972 41.1232 53.9881 40.9727 54.2716C39.6565 56.7508 36.9818 61.76 35.7712 63.8172C34.1319 66.6029 30.6015 68.3102 27.8383 65.6754C25.075 63.0406 26.8655 59.6744 29.7871 58.1114C31.9447 56.9571 37.1981 54.4068 39.7983 53.1518C40.0956 53.0083 40.191 52.6549 40.0628 52.3615C39.9346 52.0681 39.6019 51.8726 39.2851 51.9716C36.5158 52.8373 30.91 54.5759 28.5285 55.2143C25.3035 56.0788 21.541 54.9058 21.541 51.1797C21.541 47.4536 25.3035 46.2805 28.5285 47.1451C30.91 47.7836 36.5158 49.5221 39.2851 50.3878C39.6019 50.4868 39.9346 50.2912 40.0628 49.9979C40.191 49.7045 40.0956 49.3511 39.7983 49.2075C37.1981 47.9526 31.9446 45.4023 29.7871 44.248C26.8655 42.685 25.0749 39.3188 27.8382 36.684C30.6015 34.0493 34.132 35.7565 35.7712 38.5422C36.9818 40.5994 39.6565 45.6086 40.9727 48.0878C41.1232 48.3713 41.4939 48.4622 41.8016 48.34C42.1092 48.2178 42.3143 47.9005 42.2105 47.5985C41.3025 44.958 39.4792 39.613 38.8096 37.3422Z" fill="#2FC9CE"/>
</g>
<path d="M23.5439 9.95996C24.3545 12.5171 25.4782 14.5229 27.1221 16.0859C28.7374 17.6218 30.805 18.6803 33.4414 19.4502C30.8039 20.2202 28.7357 21.2803 27.1201 22.8164C25.4763 24.3795 24.353 26.3852 23.543 28.9424C22.7324 26.3851 21.6097 24.3787 19.9658 22.8154C18.3505 21.2794 16.2829 20.2198 13.6465 19.4502C16.2834 18.6803 18.3515 17.6218 19.9668 16.0859C21.6107 14.5229 22.7339 12.517 23.5439 9.95996Z" fill="#E3FEFF" stroke="#272827" stroke-width="1.5"/>
</g>
<path d="M62.804 33.4038H56.132L55.028 36.5958H51.5L57.524 19.8198H61.436L67.46 36.5958H63.908L62.804 33.4038ZM61.892 30.7158L59.468 23.7078L57.044 30.7158H61.892Z" fill="#272827"/>
<path d="M77.0797 23.1078C78.6637 23.1078 79.9437 23.6118 80.9197 24.6198C81.8957 25.6118 82.3837 27.0038 82.3837 28.7958V36.5958H79.0237V29.2518C79.0237 28.1958 78.7597 27.3878 78.2317 26.8278C77.7037 26.2518 76.9837 25.9638 76.0717 25.9638C75.1437 25.9638 74.4077 26.2518 73.8637 26.8278C73.3357 27.3878 73.0717 28.1958 73.0717 29.2518V36.5958H69.7117V23.2998H73.0717V24.9558C73.5197 24.3798 74.0877 23.9318 74.7757 23.6118C75.4797 23.2758 76.2477 23.1078 77.0797 23.1078Z" fill="#272827"/>
<path d="M89.4909 26.0598V32.4918C89.4909 32.9398 89.5949 33.2678 89.8029 33.4758C90.0269 33.6678 90.3949 33.7638 90.9069 33.7638H92.4669V36.5958H90.3549C87.5229 36.5958 86.1069 35.2198 86.1069 32.4678V26.0598H84.5229V23.2998H86.1069V20.0118H89.4909V23.2998H92.4669V26.0598H89.4909Z" fill="#272827"/>
<path d="M100.788 36.8118C99.5076 36.8118 98.3556 36.5318 97.3316 35.9718C96.3076 35.3958 95.4996 34.5878 94.9076 33.5478C94.3316 32.5078 94.0436 31.3078 94.0436 29.9478C94.0436 28.5878 94.3396 27.3878 94.9316 26.3478C95.5396 25.3078 96.3636 24.5078 97.4036 23.9478C98.4436 23.3718 99.6036 23.0838 100.884 23.0838C102.164 23.0838 103.324 23.3718 104.364 23.9478C105.404 24.5078 106.22 25.3078 106.812 26.3478C107.42 27.3878 107.724 28.5878 107.724 29.9478C107.724 31.3078 107.412 32.5078 106.788 33.5478C106.18 34.5878 105.348 35.3958 104.292 35.9718C103.252 36.5318 102.084 36.8118 100.788 36.8118ZM100.788 33.8838C101.396 33.8838 101.964 33.7398 102.492 33.4518C103.036 33.1478 103.468 32.6998 103.788 32.1078C104.108 31.5158 104.268 30.7958 104.268 29.9478C104.268 28.6838 103.932 27.7158 103.26 27.0438C102.604 26.3558 101.796 26.0118 100.836 26.0118C99.8756 26.0118 99.0676 26.3558 98.4116 27.0438C97.7716 27.7158 97.4516 28.6838 97.4516 29.9478C97.4516 31.2118 97.7636 32.1878 98.3876 32.8758C99.0276 33.5478 99.8276 33.8838 100.788 33.8838Z" fill="#272827"/>
<path d="M117.556 23.1078C119.14 23.1078 120.42 23.6118 121.396 24.6198C122.372 25.6118 122.86 27.0038 122.86 28.7958V36.5958H119.5V29.2518C119.5 28.1958 119.236 27.3878 118.708 26.8278C118.18 26.2518 117.46 25.9638 116.548 25.9638C115.62 25.9638 114.884 26.2518 114.34 26.8278C113.812 27.3878 113.548 28.1958 113.548 29.2518V36.5958H110.188V23.2998H113.548V24.9558C113.996 24.3798 114.564 23.9318 115.252 23.6118C115.956 23.2758 116.724 23.1078 117.556 23.1078Z" fill="#272827"/>
<path d="M127.759 21.7158C127.167 21.7158 126.671 21.5318 126.271 21.1638C125.887 20.7798 125.695 20.3078 125.695 19.7478C125.695 19.1878 125.887 18.7238 126.271 18.3558C126.671 17.9718 127.167 17.7798 127.759 17.7798C128.351 17.7798 128.839 17.9718 129.223 18.3558C129.623 18.7238 129.823 19.1878 129.823 19.7478C129.823 20.3078 129.623 20.7798 129.223 21.1638C128.839 21.5318 128.351 21.7158 127.759 21.7158ZM129.415 23.2998V36.5958H126.055V23.2998H129.415Z" fill="#272827"/>
<path d="M131.871 29.8998C131.871 28.5558 132.135 27.3638 132.663 26.3238C133.207 25.2838 133.935 24.4838 134.847 23.9238C135.775 23.3638 136.807 23.0838 137.943 23.0838C138.935 23.0838 139.799 23.2838 140.535 23.6838C141.287 24.0838 141.887 24.5878 142.335 25.1958V23.2998H145.719V36.5958H142.335V34.6518C141.903 35.2758 141.303 35.7958 140.535 36.2118C139.783 36.6118 138.911 36.8118 137.919 36.8118C136.799 36.8118 135.775 36.5238 134.847 35.9478C133.935 35.3718 133.207 34.5638 132.663 33.5238C132.135 32.4678 131.871 31.2598 131.871 29.8998ZM142.335 29.9478C142.335 29.1318 142.175 28.4358 141.855 27.8598C141.535 27.2678 141.103 26.8198 140.559 26.5158C140.015 26.1958 139.431 26.0358 138.807 26.0358C138.183 26.0358 137.607 26.1878 137.079 26.4918C136.551 26.7958 136.119 27.2438 135.783 27.8358C135.463 28.4118 135.303 29.0998 135.303 29.8998C135.303 30.6998 135.463 31.4038 135.783 32.0118C136.119 32.6038 136.551 33.0598 137.079 33.3798C137.623 33.6998 138.199 33.8598 138.807 33.8598C139.431 33.8598 140.015 33.7078 140.559 33.4038C141.103 33.0838 141.535 32.6358 141.855 32.0598C142.175 31.4678 142.335 30.7638 142.335 29.9478Z" fill="#272827"/>
<path d="M54.972 42.956C56.188 42.956 57.2387 43.1853 58.124 43.644C59.02 44.092 59.7027 44.7373 60.172 45.58C60.652 46.4227 60.892 47.4147 60.892 48.556C60.892 49.6973 60.652 50.6893 60.172 51.532C59.7027 52.364 59.02 53.004 58.124 53.452C57.2387 53.8893 56.188 54.108 54.972 54.108H51.5V42.956H54.972ZM54.972 52.908C56.412 52.908 57.5107 52.5293 58.268 51.772C59.0253 51.004 59.404 49.932 59.404 48.556C59.404 47.1693 59.02 46.0867 58.252 45.308C57.4947 44.5293 56.4013 44.14 54.972 44.14H52.956V52.908H54.972Z" fill="#272827"/>
<path d="M64.2685 44.14V47.868H68.3325V49.068H64.2685V52.908H68.8125V54.108H62.8125V42.94H68.8125V44.14H64.2685Z" fill="#272827"/>
<path d="M74.5516 54.22C73.8156 54.22 73.1543 54.092 72.5676 53.836C71.9916 53.5693 71.5383 53.2067 71.2076 52.748C70.877 52.2787 70.7063 51.74 70.6956 51.132H72.2476C72.301 51.6547 72.5143 52.0973 72.8876 52.46C73.2716 52.812 73.8263 52.988 74.5516 52.988C75.245 52.988 75.789 52.8173 76.1836 52.476C76.589 52.124 76.7916 51.676 76.7916 51.132C76.7916 50.7053 76.6743 50.3587 76.4396 50.092C76.205 49.8253 75.9116 49.6227 75.5596 49.484C75.2076 49.3453 74.733 49.196 74.1356 49.036C73.3996 48.844 72.8076 48.652 72.3596 48.46C71.9223 48.268 71.5436 47.9693 71.2236 47.564C70.9143 47.148 70.7596 46.5933 70.7596 45.9C70.7596 45.292 70.9143 44.7533 71.2236 44.284C71.533 43.8147 71.965 43.452 72.5196 43.196C73.085 42.94 73.7303 42.812 74.4556 42.812C75.501 42.812 76.3543 43.0733 77.0156 43.596C77.6876 44.1187 78.0663 44.812 78.1516 45.676H76.5516C76.4983 45.2493 76.2743 44.876 75.8796 44.556C75.485 44.2253 74.9623 44.06 74.3116 44.06C73.7036 44.06 73.2076 44.22 72.8236 44.54C72.4396 44.8493 72.2476 45.2867 72.2476 45.852C72.2476 46.2573 72.3596 46.588 72.5836 46.844C72.8183 47.1 73.101 47.2973 73.4316 47.436C73.773 47.564 74.2476 47.7133 74.8556 47.884C75.5916 48.0867 76.1836 48.2893 76.6316 48.492C77.0796 48.684 77.4636 48.988 77.7836 49.404C78.1036 49.8093 78.2636 50.364 78.2636 51.068C78.2636 51.612 78.1196 52.124 77.8316 52.604C77.5436 53.084 77.117 53.4733 76.5516 53.772C75.9863 54.0707 75.3196 54.22 74.5516 54.22Z" fill="#272827"/>
<path d="M81.8623 42.956V54.108H80.4063V42.956H81.8623Z" fill="#272827"/>
<path d="M92.7918 46.188C92.4824 45.5373 92.0344 45.036 91.4478 44.684C90.8611 44.3213 90.1784 44.14 89.3998 44.14C88.6211 44.14 87.9171 44.3213 87.2878 44.684C86.6691 45.036 86.1784 45.548 85.8158 46.22C85.4638 46.8813 85.2878 47.6493 85.2878 48.524C85.2878 49.3987 85.4638 50.1667 85.8158 50.828C86.1784 51.4893 86.6691 52.0013 87.2878 52.364C87.9171 52.716 88.6211 52.892 89.3998 52.892C90.4878 52.892 91.3838 52.5667 92.0878 51.916C92.7918 51.2653 93.2024 50.3853 93.3198 49.276H88.8718V48.092H94.8718V49.212C94.7864 50.1293 94.4984 50.972 94.0078 51.74C93.5171 52.4973 92.8718 53.1 92.0718 53.548C91.2718 53.9853 90.3811 54.204 89.3998 54.204C88.3651 54.204 87.4211 53.964 86.5678 53.484C85.7144 52.9933 85.0371 52.316 84.5358 51.452C84.0451 50.588 83.7998 49.612 83.7998 48.524C83.7998 47.436 84.0451 46.46 84.5358 45.596C85.0371 44.7213 85.7144 44.044 86.5678 43.564C87.4211 43.0733 88.3651 42.828 89.3998 42.828C90.5838 42.828 91.6291 43.1213 92.5358 43.708C93.4531 44.2947 94.1198 45.1213 94.5358 46.188H92.7918Z" fill="#272827"/>
<path d="M105.565 54.108H104.109L98.2529 45.228V54.108H96.7969V42.94H98.2529L104.109 51.804V42.94H105.565V54.108Z" fill="#272827"/>
<defs>
<clipPath id="clip0_1455_275">
<rect width="43.5" height="72" fill="white"/>
</clipPath>
<clipPath id="clip1_1455_275">
<rect width="43.4727" height="41.2734" fill="white" transform="translate(7.43457 19.8008)"/>
</clipPath>
<clipPath id="clip2_1455_275">
<rect width="43.4727" height="41.2734" fill="white" transform="translate(21.541 30.6797)"/>
</clipPath>
</defs>
</svg>
