<svg width="210" height="199" viewBox="0 0 210 199" fill="none" xmlns="http://www.w3.org/2000/svg">
<g clip-path="url(#clip0_1155_2856)">
<path d="M84.3349 32.3375C79.9067 17.4125 85.9149 0 105 0C124.085 0 130.093 17.4125 125.665 32.3375C122.395 43.359 113.49 69.3019 109.056 82.1183C108.549 83.584 109.551 85.1238 111.053 85.7171C112.556 86.3103 114.366 85.8689 115.101 84.4928C121.529 72.4596 134.592 48.1469 140.504 38.1619C148.509 24.6412 165.751 16.3546 179.246 29.1428C192.741 41.9309 183.997 58.2697 169.728 65.8559C159.191 71.4582 133.535 83.8367 120.837 89.9278C119.384 90.6245 118.919 92.3401 119.545 93.7639C120.171 95.1878 121.796 96.1368 123.343 95.6562C136.867 91.4543 164.244 83.0161 175.875 79.9174C191.625 75.7211 210 81.4146 210 99.4998C210 117.585 191.625 123.279 175.875 119.083C164.244 115.984 136.867 107.546 123.343 103.344C121.796 102.863 120.171 103.812 119.545 105.236C118.919 106.66 119.384 108.376 120.837 109.072C133.535 115.163 159.192 127.542 169.729 133.144C183.997 140.73 192.741 157.069 179.246 169.857C165.751 182.645 148.509 174.359 140.504 160.838C134.592 150.853 121.529 126.54 115.101 114.507C114.366 113.131 112.556 112.69 111.053 113.283C109.551 113.876 108.549 115.416 109.056 116.882C113.49 129.698 122.395 155.641 125.665 166.663C130.093 181.587 124.085 199 105 199C85.9153 199 79.9066 181.587 84.335 166.663C87.6052 155.641 96.5097 129.698 100.944 116.882C101.451 115.416 100.449 113.876 98.9469 113.283C97.4444 112.69 95.634 113.131 94.8989 114.507C88.4712 126.54 75.4085 150.853 69.4963 160.838C61.4906 174.359 44.2491 182.645 30.754 169.857C17.2589 157.069 26.0033 140.73 40.2715 133.144C50.8085 127.542 76.465 115.163 89.1633 109.072C90.6155 108.376 91.0812 106.66 90.4552 105.236C89.8291 103.812 88.2042 102.863 86.6574 103.344C73.1326 107.546 45.7557 115.984 34.125 119.083C18.375 123.279 -2.89149e-06 117.585 0 99.5002C2.50268e-06 81.4149 18.375 75.721 34.125 79.9174C45.7557 83.0164 73.1326 91.4544 86.6574 95.6563C88.2042 96.1368 89.8291 95.1878 90.4552 93.7639C91.0812 92.3401 90.6155 90.6245 89.1632 89.9279C76.4649 83.8368 50.8083 71.4584 40.2715 65.8559C26.0034 58.2695 17.2587 41.9311 30.7538 29.143C44.2489 16.3548 61.4907 24.6411 69.4963 38.162C75.4083 48.147 88.4711 72.4597 94.8989 84.4928C95.634 85.8689 97.4444 86.3103 98.9469 85.7171C100.449 85.1238 101.451 83.584 100.944 82.1182C96.5096 69.3019 87.605 43.359 84.3349 32.3375Z" fill="#B69DF0"/>
</g>
<defs>
<clipPath id="clip0_1155_2856">
<rect width="209.654" height="198.783" fill="white"/>
</clipPath>
</defs>
</svg>
