<svg width="371" height="365" viewBox="0 0 371 365" fill="none" xmlns="http://www.w3.org/2000/svg">
<path d="M235.532 70.4145C235.588 70.3612 235.616 70.3346 235.629 70.3223C244.283 62.1182 259.136 70.6076 256.459 82.228C256.455 82.2454 256.447 82.283 256.429 82.3582C256.383 82.5563 256.36 82.6553 256.338 82.7484C243.716 137.066 261.324 195.223 302.855 236.386C302.926 236.457 303.002 236.532 303.154 236.682C303.211 236.739 303.24 236.767 303.254 236.78C312.118 245.597 304.089 259.645 291.993 256.481C291.975 256.477 291.936 256.466 291.858 256.446C291.651 256.391 291.548 256.364 291.451 256.338C234.905 241.444 175.859 255.787 135.462 294.23C135.393 294.296 135.319 294.366 135.172 294.507C135.116 294.56 135.088 294.587 135.075 294.599C126.421 302.803 111.569 294.314 114.245 282.693C114.249 282.676 114.258 282.638 114.276 282.563C114.322 282.365 114.345 282.266 114.367 282.173C126.989 227.855 109.381 169.698 67.8495 128.535C67.7784 128.465 67.7025 128.39 67.5509 128.24C67.4933 128.183 67.4645 128.154 67.4512 128.141C58.5865 119.324 66.6157 105.277 78.7116 108.44C78.7298 108.445 78.7689 108.455 78.8472 108.476C79.0534 108.53 79.1565 108.558 79.2533 108.583C135.799 123.478 194.846 109.134 235.243 70.691C235.312 70.6251 235.385 70.5549 235.532 70.4145Z" fill="#2FC9CE"/>
</svg>
