<svg width="32" height="32" viewBox="0 0 32 32" fill="none" xmlns="http://www.w3.org/2000/svg">
<path d="M31 11.5855C31.0008 11.3227 30.9494 11.0624 30.8488 10.8197C30.7481 10.577 30.6002 10.3568 30.4137 10.1717L21.8287 1.58546C21.643 1.39969 21.4225 1.25233 21.1798 1.1518C20.9371 1.05126 20.677 0.999512 20.4143 0.999512C20.1516 0.999512 19.8915 1.05126 19.6489 1.1518C19.4062 1.25233 19.1857 1.39969 19 1.58546L15.4462 5.13921L8.19621 7.86046C7.86671 7.98334 7.57527 8.19062 7.35107 8.46155C7.12687 8.73247 6.97778 9.05754 6.91871 9.40421L4.01371 26.8355C3.98974 26.9787 3.99727 27.1255 4.0358 27.2656C4.07432 27.4057 4.1429 27.5357 4.23677 27.6466C4.33064 27.7575 4.44754 27.8466 4.57934 27.9077C4.71114 27.9688 4.85468 28.0005 4.99996 28.0005C5.05523 28.0002 5.1104 27.9956 5.16496 27.9867L22.595 25.0817C22.9412 25.0239 23.2661 24.876 23.5371 24.6529C23.8081 24.4297 24.0156 24.1392 24.1387 23.8105L26.86 16.5605L30.4137 13.0005C30.6003 12.8152 30.7483 12.5947 30.8489 12.3518C30.9495 12.1089 31.0009 11.8484 31 11.5855ZM22.2662 23.1092L7.91496 25.5005L13.8362 19.5792C14.5758 19.9789 15.4345 20.0991 16.2553 19.9177C17.0762 19.7364 17.8044 19.2656 18.3067 18.5915C18.809 17.9175 19.052 17.0851 18.9911 16.2467C18.9302 15.4082 18.5696 14.6197 17.9752 14.0252C17.3807 13.4308 16.5922 13.0702 15.7538 13.0093C14.9153 12.9484 14.0829 13.1914 13.4089 13.6937C12.7348 14.196 12.2641 14.9242 12.0827 15.7451C11.9014 16.5659 12.0215 17.4246 12.4212 18.1642L6.49996 24.088L8.89121 9.73296L15.75 7.16171L24.8375 16.2505L22.2662 23.1092ZM14 16.5005C14 16.2038 14.0879 15.9138 14.2528 15.6671C14.4176 15.4204 14.6518 15.2282 14.9259 15.1146C15.2 15.0011 15.5016 14.9714 15.7926 15.0293C16.0836 15.0872 16.3508 15.23 16.5606 15.4398C16.7704 15.6496 16.9133 15.9169 16.9711 16.2078C17.029 16.4988 16.9993 16.8004 16.8858 17.0745C16.7722 17.3486 16.58 17.5828 16.3333 17.7477C16.0866 17.9125 15.7966 18.0005 15.5 18.0005C15.1021 18.0005 14.7206 17.8424 14.4393 17.5611C14.158 17.2798 14 16.8983 14 16.5005ZM26 14.5855L17.4137 6.00046L20.4137 3.00046L29 11.5855L26 14.5855Z" fill="#014F51"/>
</svg>
