<svg width="43" height="40" viewBox="0 0 43 40" fill="none" xmlns="http://www.w3.org/2000/svg">
<g clip-path="url(#clip0_1136_2492)">
<path d="M31.4834 10.0001C25.6906 10.0172 21 14.4877 21 20C21 14.4877 16.3095 10.017 10.5166 9.99996C16.3094 9.98292 21 5.51231 21 0C21 5.51231 25.6905 9.98307 31.4834 10.0001Z" fill="#0EA7AC"/>
<path d="M20.9668 20.0001C15.174 20.0171 10.4834 24.4877 10.4834 30C10.4834 24.4877 5.79288 20.017 0 20C5.79278 19.9829 10.4834 15.5123 10.4834 10C10.4834 15.5123 15.1739 19.9831 20.9668 20.0001Z" fill="#0EA7AC"/>
<path d="M42 20.0001C36.2072 20.0171 31.5166 24.4877 31.5166 30C31.5166 24.4877 26.826 20.017 21.0332 20C26.8259 19.9829 31.5166 15.5123 31.5166 10C31.5166 15.5123 36.2071 19.9831 42 20.0001Z" fill="#0EA7AC"/>
<path d="M31.4834 30.0001C25.6906 30.0171 21 34.4877 21 40C21 34.4877 16.3095 30.017 10.5166 30C16.3094 29.9829 21 25.5123 21 20C21 25.5123 25.6905 29.9831 31.4834 30.0001Z" fill="#0EA7AC"/>
</g>
<defs>
<clipPath id="clip0_1136_2492">
<rect width="42.0993" height="39.9164" fill="white"/>
</clipPath>
</defs>
</svg>
