<svg width="296" height="288" viewBox="0 0 296 288" fill="none" xmlns="http://www.w3.org/2000/svg">
<g clip-path="url(#clip0_1155_2858)">
<path d="M221.148 97.1277C242.599 94.8642 257.145 97.4598 260.242 106.916C263.338 116.372 253.145 127.069 234.51 137.932C253.939 146.227 264.958 155.493 262.66 165.313C260.361 175.133 246.11 179.671 224.592 180.306C236.791 196.938 241.332 210.391 234.254 217.944C227.176 225.497 212.686 222.661 194.049 212.897C195.751 233.409 192.596 247.445 182.635 250.707C172.675 253.968 161.829 244.518 151.069 226.973C141.817 245.867 131.812 256.725 121.638 254.821C111.464 252.918 107.167 239.385 107.167 218.758C89.44 230.974 75.2653 235.744 67.6033 229.186C59.9413 222.627 63.346 208.638 74.1046 190.458C52.6526 192.722 38.1063 190.126 35.0097 180.67C31.9131 171.213 42.1068 160.517 60.7428 149.653C41.3145 141.358 30.295 132.092 32.5936 122.272C34.8923 112.452 49.143 107.914 70.6618 107.279C58.4621 90.6468 53.9215 77.1938 60.9995 69.6409C68.0773 62.0881 82.5663 64.9244 101.202 74.6872C99.5002 54.176 102.655 40.1407 112.616 36.8791C122.577 33.6173 133.423 43.0686 144.183 60.6147C153.435 41.7185 163.441 30.8605 173.615 32.764C183.79 34.6675 188.086 48.2005 188.087 68.827C205.813 56.6108 219.988 51.8407 227.65 58.3993C235.312 64.9579 231.907 78.9471 221.148 97.1277Z" fill="#3F1390"/>
</g>
<defs>
<clipPath id="clip0_1155_2858">
<rect width="237.007" height="224.718" fill="white" transform="translate(0 73.7559) rotate(-18.1314)"/>
</clipPath>
</defs>
</svg>
