<svg width="1440" height="68" viewBox="0 0 1440 68" fill="none" xmlns="http://www.w3.org/2000/svg">
<mask id="path-1-outside-1_840_1683" maskUnits="userSpaceOnUse" x="-45.1641" y="-0.844727" width="1530" height="69" fill="black">
<rect fill="white" x="-45.1641" y="-0.844727" width="1530" height="69"/>
<path d="M-23.201 29.2207H3.3472V44.5635H-23.201V29.2207ZM-21.8219 63.8713H-42.1641V3.5344H6.88122V18.8772H-21.8219V63.8713ZM18.4792 63.8713V3.5344H38.8214V63.8713H18.4792ZM85.0747 65.2504C80.1903 65.2504 75.6794 64.5034 71.542 63.0094C67.4621 61.4578 63.8994 59.2742 60.8538 56.4585C57.8657 53.6428 55.5384 50.3099 53.8719 46.4598C52.2055 42.6097 51.3723 38.3574 51.3723 33.7029C51.3723 29.0483 52.2055 24.796 53.8719 20.9459C55.5384 17.0958 57.8944 13.7629 60.94 10.9472C63.9856 8.1315 67.577 5.97661 71.7144 4.48255C75.9093 2.93103 80.5064 2.15527 85.5057 2.15527C91.4819 2.15527 96.7973 3.16089 101.452 5.17212C106.164 7.18335 110.043 10.0565 113.088 13.7917L100.073 25.2557C98.1765 23.0721 96.1078 21.4343 93.8667 20.3425C91.6831 19.1933 89.2409 18.6186 86.5401 18.6186C84.299 18.6186 82.259 18.9634 80.4202 19.653C78.6388 20.3425 77.116 21.3482 75.8518 22.6698C74.5876 23.9915 73.6107 25.5717 72.9212 27.4106C72.2316 29.2494 71.8868 31.3468 71.8868 33.7029C71.8868 35.9439 72.2316 38.0126 72.9212 39.9089C73.6107 41.7478 74.5876 43.328 75.8518 44.6497C77.116 45.9714 78.6101 47.0057 80.334 47.7527C82.1154 48.4423 84.0979 48.7871 86.2815 48.7871C88.58 48.7871 90.8211 48.4136 93.0047 47.6665C95.1884 46.862 97.5156 45.5116 99.9866 43.6153L111.364 57.579C107.687 60.05 103.492 61.9463 98.7798 63.2679C94.0678 64.5896 89.4995 65.2504 85.0747 65.2504ZM93.6943 54.9932V32.0651H111.364V57.579L93.6943 54.9932ZM125.203 63.8713V3.5344H141.925L166.06 42.9258H157.268L180.713 3.5344H197.435L197.608 63.8713H179.076L178.903 31.4618H181.834L165.802 58.441H156.837L140.115 31.4618H143.736V63.8713H125.203ZM206.064 63.8713L232.44 3.5344H252.437L278.813 63.8713H257.781L238.301 13.1883H246.231L226.751 63.8713H206.064ZM221.751 53.3554L226.923 38.7022H254.678L259.85 53.3554H221.751Z"/>
<path d="M331.58 65.2504C326.523 65.2504 321.639 64.6758 316.927 63.5265C312.215 62.3773 308.336 60.8832 305.29 59.0444L311.841 44.2187C314.714 45.8852 317.904 47.2356 321.409 48.2699C324.972 49.2468 328.419 49.7352 331.752 49.7352C333.706 49.7352 335.229 49.6203 336.321 49.3904C337.47 49.1031 338.303 48.7296 338.82 48.2699C339.338 47.7527 339.596 47.1494 339.596 46.4598C339.596 45.368 338.993 44.506 337.786 43.8739C336.579 43.2418 334.97 42.7247 332.959 42.3224C331.005 41.8627 328.85 41.403 326.494 40.9433C324.138 40.4261 321.754 39.7653 319.34 38.9608C316.984 38.1563 314.801 37.0932 312.789 35.7715C310.836 34.4499 309.255 32.726 308.049 30.5998C306.842 28.4162 306.238 25.7154 306.238 22.4974C306.238 18.7623 307.273 15.3719 309.341 12.3263C311.468 9.22331 314.599 6.75237 318.737 4.91353C322.932 3.07469 328.132 2.15527 334.338 2.15527C338.418 2.15527 342.441 2.58625 346.406 3.44821C350.371 4.31016 353.933 5.63183 357.094 7.4132L350.974 22.1526C347.986 20.6586 345.084 19.538 342.268 18.791C339.51 18.044 336.809 17.6705 334.166 17.6705C332.212 17.6705 330.66 17.8429 329.511 18.1876C328.362 18.5324 327.529 18.9921 327.012 19.5668C326.552 20.1414 326.322 20.7735 326.322 21.4631C326.322 22.4974 326.925 23.3307 328.132 23.9628C329.339 24.5374 330.919 25.0258 332.873 25.4281C334.884 25.8303 337.068 26.2613 339.424 26.721C341.837 27.1807 344.222 27.8128 346.578 28.6173C348.934 29.4218 351.089 30.4849 353.043 31.8066C355.054 33.1282 356.663 34.8521 357.87 36.9783C359.076 39.1044 359.68 41.7478 359.68 44.9083C359.68 48.586 358.617 51.9763 356.49 55.0794C354.422 58.1249 351.319 60.5959 347.181 62.4922C343.044 64.331 337.844 65.2504 331.58 65.2504ZM370.905 63.8713V3.5344H399.953C405.584 3.5344 410.44 4.45382 414.52 6.29266C418.657 8.1315 421.846 10.7748 424.087 14.2227C426.328 17.613 427.449 21.6355 427.449 26.29C427.449 30.9446 426.328 34.9671 424.087 38.3574C421.846 41.7478 418.657 44.3911 414.52 46.2874C410.44 48.1262 405.584 49.0457 399.953 49.0457H382.196L391.247 40.3399V63.8713H370.905ZM391.247 42.581L382.196 33.3581H398.66C401.475 33.3581 403.544 32.726 404.866 31.4618C406.245 30.1976 406.934 28.4737 406.934 26.29C406.934 24.1064 406.245 22.3825 404.866 21.1183C403.544 19.8541 401.475 19.222 398.66 19.222H382.196L391.247 9.99907V42.581ZM439.292 63.8713V3.5344H459.634V48.0975H486.872V63.8713H439.292ZM497.663 63.8713V3.5344H518.005V63.8713H497.663ZM532.969 63.8713V3.5344H549.691L580.377 40.2537H572.619V3.5344H592.444V63.8713H575.722L545.037 27.152H552.794V63.8713H532.969ZM626.036 25.9453H652.928V40.5985H626.036V25.9453ZM627.415 48.5285H657.583V63.8713H607.417V3.5344H656.463V18.8772H627.415V48.5285Z"/>
<path d="M686.102 63.8713L712.478 3.5344H732.476L758.851 63.8713H737.82L718.34 13.1883H726.269L706.789 63.8713H686.102ZM701.79 53.3554L706.962 38.7022H734.717L739.888 53.3554H701.79ZM786.233 29.2207H812.781V44.5635H786.233V29.2207ZM787.612 63.8713H767.27V3.5344H816.315V18.8772H787.612V63.8713ZM841.436 63.8713V19.3082H823.765V3.5344H879.448V19.3082H861.778V63.8713H841.436ZM908.521 25.9453H935.414V40.5985H908.521V25.9453ZM909.9 48.5285H940.069V63.8713H889.903V3.5344H938.948V18.8772H909.9V48.5285ZM953.072 63.8713V3.5344H982.12C987.751 3.5344 992.607 4.45382 996.687 6.29266C1000.82 8.1315 1004.01 10.7748 1006.25 14.2227C1008.5 17.613 1009.62 21.6355 1009.62 26.29C1009.62 30.9446 1008.5 34.9671 1006.25 38.3574C1004.01 41.6903 1000.82 44.2474 996.687 46.0288C992.607 47.8102 987.751 48.7009 982.12 48.7009H964.363L973.414 40.3399V63.8713H953.072ZM989.188 63.8713L974.362 41.8914H995.911L1010.91 63.8713H989.188ZM973.414 42.581L964.363 33.3581H980.827C983.642 33.3581 985.711 32.726 987.033 31.4618C988.412 30.1976 989.101 28.4737 989.101 26.29C989.101 24.1064 988.412 22.3825 987.033 21.1183C985.711 19.8541 983.642 19.222 980.827 19.222H964.363L973.414 9.99907V42.581ZM1072.1 25.9453H1098.99V40.5985H1072.1V25.9453ZM1073.48 48.5285H1103.65V63.8713H1053.48V3.5344H1102.53V18.8772H1073.48V48.5285ZM1135.61 29.2207H1162.16V44.5635H1135.61V29.2207ZM1136.99 63.8713H1116.65V3.5344H1165.7V18.8772H1136.99V63.8713ZM1196.26 29.2207H1222.81V44.5635H1196.26V29.2207ZM1197.64 63.8713H1177.29V3.5344H1226.34V18.8772H1197.64V63.8713ZM1256.56 25.9453H1283.45V40.5985H1256.56V25.9453ZM1257.94 48.5285H1288.1V63.8713H1237.94V3.5344H1286.98V18.8772H1257.94V48.5285ZM1332.31 65.2504C1327.48 65.2504 1323 64.5034 1318.86 63.0094C1314.78 61.4578 1311.22 59.2742 1308.17 56.4585C1305.19 53.6428 1302.86 50.3099 1301.19 46.4598C1299.53 42.6097 1298.69 38.3574 1298.69 33.7029C1298.69 29.0483 1299.53 24.796 1301.19 20.9459C1302.86 17.0958 1305.19 13.7629 1308.17 10.9472C1311.22 8.1315 1314.78 5.97661 1318.86 4.48255C1323 2.93103 1327.48 2.15527 1332.31 2.15527C1338.23 2.15527 1343.46 3.18962 1348 5.25832C1352.59 7.32701 1356.39 10.3151 1359.37 14.2227L1346.53 25.6867C1344.75 23.4456 1342.77 21.7217 1340.58 20.5149C1338.46 19.2507 1336.04 18.6186 1333.34 18.6186C1331.22 18.6186 1329.29 18.9634 1327.57 19.653C1325.84 20.3425 1324.35 21.3482 1323.09 22.6698C1321.88 23.9915 1320.93 25.6005 1320.24 27.4968C1319.55 29.3356 1319.21 31.4043 1319.21 33.7029C1319.21 36.0014 1319.55 38.0988 1320.24 39.9951C1320.93 41.834 1321.88 43.4142 1323.09 44.7359C1324.35 46.0576 1325.84 47.0632 1327.57 47.7527C1329.29 48.4423 1331.22 48.7871 1333.34 48.7871C1336.04 48.7871 1338.46 48.1837 1340.58 46.977C1342.77 45.7128 1344.75 43.9601 1346.53 41.719L1359.37 53.1831C1356.39 57.0331 1352.59 60.0212 1348 62.1474C1343.46 64.2161 1338.23 65.2504 1332.31 65.2504ZM1383.1 63.8713V19.3082H1365.43V3.5344H1421.11V19.3082H1403.44V63.8713H1383.1ZM1454.07 65.2504C1449.01 65.2504 1444.12 64.6758 1439.41 63.5265C1434.7 62.3773 1430.82 60.8832 1427.78 59.0444L1434.33 44.2187C1437.2 45.8852 1440.39 47.2356 1443.89 48.2699C1447.46 49.2468 1450.9 49.7352 1454.24 49.7352C1456.19 49.7352 1457.71 49.6203 1458.81 49.3904C1459.96 49.1031 1460.79 48.7296 1461.31 48.2699C1461.82 47.7527 1462.08 47.1494 1462.08 46.4598C1462.08 45.368 1461.48 44.506 1460.27 43.8739C1459.06 43.2418 1457.46 42.7247 1455.44 42.3224C1453.49 41.8627 1451.34 41.403 1448.98 40.9433C1446.62 40.4261 1444.24 39.7653 1441.83 38.9608C1439.47 38.1563 1437.29 37.0932 1435.27 35.7715C1433.32 34.4499 1431.74 32.726 1430.53 30.5998C1429.33 28.4162 1428.72 25.7154 1428.72 22.4974C1428.72 18.7623 1429.76 15.3719 1431.83 12.3263C1433.95 9.22331 1437.08 6.75237 1441.22 4.91353C1445.42 3.07469 1450.62 2.15527 1456.82 2.15527C1460.9 2.15527 1464.93 2.58625 1468.89 3.44821C1472.86 4.31016 1476.42 5.63183 1479.58 7.4132L1473.46 22.1526C1470.47 20.6586 1467.57 19.538 1464.75 18.791C1462 18.044 1459.29 17.6705 1456.65 17.6705C1454.7 17.6705 1453.15 17.8429 1452 18.1876C1450.85 18.5324 1450.01 18.9921 1449.5 19.5668C1449.04 20.1414 1448.81 20.7735 1448.81 21.4631C1448.81 22.4974 1449.41 23.3307 1450.62 23.9628C1451.82 24.5374 1453.4 25.0258 1455.36 25.4281C1457.37 25.8303 1459.55 26.2613 1461.91 26.721C1464.32 27.1807 1466.71 27.8128 1469.06 28.6173C1471.42 29.4218 1473.57 30.4849 1475.53 31.8066C1477.54 33.1282 1479.15 34.8521 1480.35 36.9783C1481.56 39.1044 1482.16 41.7478 1482.16 44.9083C1482.16 48.586 1481.1 51.9763 1478.98 55.0794C1476.91 58.1249 1473.8 60.5959 1469.67 62.4922C1465.53 64.331 1460.33 65.2504 1454.07 65.2504Z"/>
</mask>
<path d="M-23.201 29.2207V27.0658H-25.3559V29.2207H-23.201ZM3.3472 29.2207H5.50209V27.0658H3.3472V29.2207ZM3.3472 44.5635V46.7184H5.50209V44.5635H3.3472ZM-23.201 44.5635H-25.3559V46.7184H-23.201V44.5635ZM-21.8219 63.8713V66.0262H-19.667V63.8713H-21.8219ZM-42.1641 63.8713H-44.319V66.0262H-42.1641V63.8713ZM-42.1641 3.5344V1.37951H-44.319V3.5344H-42.1641ZM6.88122 3.5344H9.03611V1.37951H6.88122V3.5344ZM6.88122 18.8772V21.0321H9.03611V18.8772H6.88122ZM-21.8219 18.8772V16.7223H-23.9768V18.8772H-21.8219ZM18.4792 63.8713H16.3243V66.0262H18.4792V63.8713ZM18.4792 3.5344V1.37951H16.3243V3.5344H18.4792ZM38.8214 3.5344H40.9763V1.37951H38.8214V3.5344ZM38.8214 63.8713V66.0262H40.9763V63.8713H38.8214ZM71.542 63.0094L70.7761 65.0235L70.7931 65.03L70.8102 65.0361L71.542 63.0094ZM60.8538 56.4585L59.376 58.0268L59.3834 58.0338L59.3909 58.0408L60.8538 56.4585ZM53.8719 46.4598L51.8944 47.3158L53.8719 46.4598ZM53.8719 20.9459L51.8944 20.0899L53.8719 20.9459ZM60.94 10.9472L59.4771 9.36495V9.36495L60.94 10.9472ZM71.7144 4.48255L72.4463 6.50935L72.4542 6.50652L72.462 6.50363L71.7144 4.48255ZM101.452 5.17212L100.597 7.15026L100.606 7.15402L101.452 5.17212ZM113.088 13.7917L114.513 15.4087L116.069 14.0376L114.758 12.4299L113.088 13.7917ZM100.073 25.2557L98.4458 26.6686L99.8686 28.3071L101.497 26.8728L100.073 25.2557ZM93.8667 20.3425L92.8631 22.2494L92.8928 22.2651L92.9229 22.2798L93.8667 20.3425ZM80.4202 19.653L79.6636 17.6353L79.6529 17.6393L79.6423 17.6434L80.4202 19.653ZM75.8518 22.6698L77.409 24.1593V24.1593L75.8518 22.6698ZM72.9212 27.4106L74.9389 28.1672L72.9212 27.4106ZM72.9212 39.9089L70.896 40.6454L70.8997 40.6555L70.9035 40.6656L72.9212 39.9089ZM75.8518 44.6497L77.409 43.1602L75.8518 44.6497ZM80.334 47.7527L79.4772 49.73L79.5163 49.7469L79.5561 49.7623L80.334 47.7527ZM93.0047 47.6665L93.7023 49.7054L93.7261 49.6973L93.7497 49.6886L93.0047 47.6665ZM99.9866 43.6153L101.657 42.2542L100.335 40.6316L98.6746 41.9058L99.9866 43.6153ZM111.364 57.579L112.566 59.3677L113.519 58.7273V57.579H111.364ZM98.7798 63.2679L99.3618 65.3428L98.7798 63.2679ZM93.6943 54.9932H91.5394V56.8557L93.3823 57.1253L93.6943 54.9932ZM93.6943 32.0651V29.9102H91.5394V32.0651H93.6943ZM111.364 32.0651H113.519V29.9102H111.364V32.0651ZM125.203 63.8713H123.049V66.0262H125.203V63.8713ZM125.203 3.5344V1.37951H123.049V3.5344H125.203ZM141.925 3.5344L143.763 2.40862L143.132 1.37951H141.925V3.5344ZM166.06 42.9258V45.0807H169.908L167.898 41.8L166.06 42.9258ZM157.268 42.9258L155.417 41.8237L153.478 45.0807H157.268V42.9258ZM180.713 3.5344V1.37951H179.488L178.862 2.43228L180.713 3.5344ZM197.435 3.5344L199.59 3.52824L199.584 1.37951H197.435V3.5344ZM197.608 63.8713V66.0262H199.769L199.763 63.8652L197.608 63.8713ZM179.076 63.8713L176.921 63.8828L176.932 66.0262H179.076V63.8713ZM178.903 31.4618V29.3069H176.737L176.748 31.4732L178.903 31.4618ZM181.834 31.4618L183.686 32.5626L185.621 29.3069H181.834V31.4618ZM165.802 58.441V60.5959H167.028L167.654 59.5418L165.802 58.441ZM156.837 58.441L155.006 59.5762L155.638 60.5959H156.837V58.441ZM140.115 31.4618V29.3069H136.244L138.284 32.597L140.115 31.4618ZM143.736 31.4618H145.89V29.3069H143.736V31.4618ZM143.736 63.8713V66.0262H145.89V63.8713H143.736ZM206.064 63.8713L204.089 63.0082L202.77 66.0262H206.064V63.8713ZM232.44 3.5344V1.37951H231.03L230.465 2.67127L232.44 3.5344ZM252.437 3.5344L254.411 2.67127L253.847 1.37951H252.437V3.5344ZM278.813 63.8713V66.0262H282.107L280.787 63.0082L278.813 63.8713ZM257.781 63.8713L255.77 64.6444L256.301 66.0262H257.781V63.8713ZM238.301 13.1883V11.0334H235.164L236.289 13.9614L238.301 13.1883ZM246.231 13.1883L248.242 13.9614L249.368 11.0334H246.231V13.1883ZM226.751 63.8713V66.0262H228.231L228.762 64.6444L226.751 63.8713ZM221.751 53.3554L219.719 52.6383L218.706 55.5103H221.751V53.3554ZM226.923 38.7022V36.5473H225.398L224.891 37.985L226.923 38.7022ZM254.678 38.7022L256.71 37.985L256.203 36.5473H254.678V38.7022ZM259.85 53.3554V55.5103H262.895L261.882 52.6383L259.85 53.3554ZM305.29 59.0444L303.319 58.1734L302.553 59.9086L304.177 60.8891L305.29 59.0444ZM311.841 44.2187L312.922 42.3547L310.842 41.1481L309.87 43.3478L311.841 44.2187ZM321.409 48.2699L320.799 50.3367L320.819 50.3426L320.839 50.3481L321.409 48.2699ZM336.321 49.3904L336.765 51.4991L336.804 51.4908L336.843 51.481L336.321 49.3904ZM338.82 48.2699L340.252 49.8805L340.299 49.8384L340.344 49.7936L338.82 48.2699ZM337.786 43.8739L336.786 45.7828V45.7828L337.786 43.8739ZM332.959 42.3224L332.466 44.42L332.501 44.4283L332.536 44.4355L332.959 42.3224ZM326.494 40.9433L326.032 43.0481L326.057 43.0535L326.082 43.0583L326.494 40.9433ZM319.34 38.9608L318.644 41.0001L318.651 41.0026L318.659 41.0051L319.34 38.9608ZM312.789 35.7715L311.582 37.5564L311.594 37.5645L311.606 37.5724L312.789 35.7715ZM308.049 30.5998L306.163 31.6421L306.168 31.6528L306.174 31.6635L308.049 30.5998ZM309.341 12.3263L307.564 11.1083L307.559 11.1156L309.341 12.3263ZM318.737 4.91353L317.872 2.93991L317.862 2.94437L318.737 4.91353ZM346.406 3.44821L345.948 5.55391L346.406 3.44821ZM357.094 7.4132L359.084 8.23953L359.817 6.4744L358.152 5.53597L357.094 7.4132ZM350.974 22.1526L350.01 24.08L352.078 25.1138L352.964 22.979L350.974 22.1526ZM342.268 18.791L341.705 20.871L341.716 20.8739L342.268 18.791ZM329.511 18.1876L328.892 16.1236V16.1236L329.511 18.1876ZM327.012 19.5668L325.41 18.1252L325.368 18.1718L325.329 18.2206L327.012 19.5668ZM328.132 23.9628L327.132 25.8716L327.169 25.8907L327.206 25.9083L328.132 23.9628ZM332.873 25.4281L332.438 27.5387L332.45 27.5411L332.873 25.4281ZM339.424 26.721L339.011 28.836L339.021 28.8378L339.424 26.721ZM346.578 28.6173L345.882 30.6566L346.578 28.6173ZM353.043 31.8066L351.835 33.5914L351.847 33.5995L351.859 33.6074L353.043 31.8066ZM357.87 36.9783L355.996 38.042V38.042L357.87 36.9783ZM356.49 55.0794L354.713 53.8613L354.708 53.8686L356.49 55.0794ZM347.181 62.4922L348.057 64.4613L348.068 64.4563L348.079 64.4511L347.181 62.4922ZM370.905 63.8713H368.75V66.0262H370.905V63.8713ZM370.905 3.5344V1.37951H368.75V3.5344H370.905ZM414.52 6.29266L413.634 8.25726L413.644 8.26182L414.52 6.29266ZM424.087 14.2227L422.281 15.397L422.285 15.404L422.29 15.4109L424.087 14.2227ZM424.087 38.3574L422.29 37.1691L424.087 38.3574ZM414.52 46.2874L415.405 48.252L415.417 48.2463L414.52 46.2874ZM382.196 49.0457L380.702 47.4926L376.848 51.2006H382.196V49.0457ZM391.247 40.3399H393.402V35.2771L389.753 38.7869L391.247 40.3399ZM391.247 63.8713V66.0262H393.402V63.8713H391.247ZM391.247 42.581L389.709 44.0903L393.402 47.8536V42.581H391.247ZM382.196 33.3581V31.2032H377.063L380.658 34.8674L382.196 33.3581ZM404.866 31.4618L403.41 29.8733L403.393 29.8887L403.376 29.9046L404.866 31.4618ZM404.866 21.1183L403.376 22.6755L403.393 22.6913L403.41 22.7068L404.866 21.1183ZM382.196 19.222L380.658 17.7127L377.063 21.3769H382.196V19.222ZM391.247 9.99907H393.402V4.72649L389.709 8.48978L391.247 9.99907ZM439.292 63.8713H437.137V66.0262H439.292V63.8713ZM439.292 3.5344V1.37951H437.137V3.5344H439.292ZM459.634 3.5344H461.789V1.37951H459.634V3.5344ZM459.634 48.0975H457.479V50.2524H459.634V48.0975ZM486.872 48.0975H489.027V45.9426H486.872V48.0975ZM486.872 63.8713V66.0262H489.027V63.8713H486.872ZM497.663 63.8713H495.508V66.0262H497.663V63.8713ZM497.663 3.5344V1.37951H495.508V3.5344H497.663ZM518.005 3.5344H520.16V1.37951H518.005V3.5344ZM518.005 63.8713V66.0262H520.16V63.8713H518.005ZM532.969 63.8713H530.814V66.0262H532.969V63.8713ZM532.969 3.5344V1.37951H530.814V3.5344H532.969ZM549.691 3.5344L551.345 2.15258L550.699 1.37951H549.691V3.5344ZM580.377 40.2537V42.4086H584.986L582.03 38.8719L580.377 40.2537ZM572.619 40.2537H570.464V42.4086H572.619V40.2537ZM572.619 3.5344V1.37951H570.464V3.5344H572.619ZM592.444 3.5344H594.599V1.37951H592.444V3.5344ZM592.444 63.8713V66.0262H594.599V63.8713H592.444ZM575.722 63.8713L574.069 65.2531L574.715 66.0262H575.722V63.8713ZM545.037 27.152V24.9971H540.427L543.383 28.5338L545.037 27.152ZM552.794 27.152H554.949V24.9971H552.794V27.152ZM552.794 63.8713V66.0262H554.949V63.8713H552.794ZM626.036 25.9453V23.7904H623.881V25.9453H626.036ZM652.928 25.9453H655.083V23.7904H652.928V25.9453ZM652.928 40.5985V42.7534H655.083V40.5985H652.928ZM626.036 40.5985H623.881V42.7534H626.036V40.5985ZM627.415 48.5285H625.26V50.6834H627.415V48.5285ZM657.583 48.5285H659.738V46.3736H657.583V48.5285ZM657.583 63.8713V66.0262H659.738V63.8713H657.583ZM607.417 63.8713H605.262V66.0262H607.417V63.8713ZM607.417 3.5344V1.37951H605.262V3.5344H607.417ZM656.463 3.5344H658.617V1.37951H656.463V3.5344ZM656.463 18.8772V21.0321H658.617V18.8772H656.463ZM627.415 18.8772V16.7223H625.26V18.8772H627.415ZM686.102 63.8713L684.128 63.0082L682.809 66.0262H686.102V63.8713ZM712.478 3.5344V1.37951H711.068L710.504 2.67127L712.478 3.5344ZM732.476 3.5344L734.45 2.67127L733.885 1.37951H732.476V3.5344ZM758.851 63.8713V66.0262H762.145L760.826 63.0082L758.851 63.8713ZM737.82 63.8713L735.808 64.6444L736.339 66.0262H737.82V63.8713ZM718.34 13.1883V11.0334H715.203L716.328 13.9614L718.34 13.1883ZM726.269 13.1883L728.281 13.9614L729.406 11.0334H726.269V13.1883ZM706.789 63.8713V66.0262H708.27L708.801 64.6444L706.789 63.8713ZM701.79 53.3554L699.758 52.6382L698.744 55.5103H701.79V53.3554ZM706.962 38.7022V36.5473H705.437L704.93 37.985L706.962 38.7022ZM734.717 38.7022L736.749 37.985L736.241 36.5473H734.717V38.7022ZM739.888 53.3554V55.5103H742.934L741.92 52.6382L739.888 53.3554ZM786.233 29.2207V27.0658H784.078V29.2207H786.233ZM812.781 29.2207H814.936V27.0658H812.781V29.2207ZM812.781 44.5635V46.7184H814.936V44.5635H812.781ZM786.233 44.5635H784.078V46.7184H786.233V44.5635ZM787.612 63.8713V66.0262H789.767V63.8713H787.612ZM767.27 63.8713H765.115V66.0262H767.27V63.8713ZM767.27 3.5344V1.37951H765.115V3.5344H767.27ZM816.315 3.5344H818.47V1.37951H816.315V3.5344ZM816.315 18.8772V21.0321H818.47V18.8772H816.315ZM787.612 18.8772V16.7223H785.457V18.8772H787.612ZM841.436 63.8713H839.281V66.0262H841.436V63.8713ZM841.436 19.3082H843.59V17.1533H841.436V19.3082ZM823.765 19.3082H821.61V21.4631H823.765V19.3082ZM823.765 3.5344V1.37951H821.61V3.5344H823.765ZM879.448 3.5344H881.603V1.37951H879.448V3.5344ZM879.448 19.3082V21.4631H881.603V19.3082H879.448ZM861.778 19.3082V17.1533H859.623V19.3082H861.778ZM861.778 63.8713V66.0262H863.933V63.8713H861.778ZM908.521 25.9453V23.7904H906.366V25.9453H908.521ZM935.414 25.9453H937.569V23.7904H935.414V25.9453ZM935.414 40.5985V42.7534H937.569V40.5985H935.414ZM908.521 40.5985H906.366V42.7534H908.521V40.5985ZM909.9 48.5285H907.745V50.6834H909.9V48.5285ZM940.069 48.5285H942.224V46.3736H940.069V48.5285ZM940.069 63.8713V66.0262H942.224V63.8713H940.069ZM889.903 63.8713H887.748V66.0262H889.903V63.8713ZM889.903 3.5344V1.37951H887.748V3.5344H889.903ZM938.948 3.5344H941.103V1.37951H938.948V3.5344ZM938.948 18.8772V21.0321H941.103V18.8772H938.948ZM909.9 18.8772V16.7223H907.745V18.8772H909.9ZM953.072 63.8713H950.917V66.0262H953.072V63.8713ZM953.072 3.5344V1.37951H950.917V3.5344H953.072ZM996.687 6.29266L995.801 8.25726L995.811 8.26182L996.687 6.29266ZM1006.25 14.2227L1004.45 15.397L1004.45 15.404L1004.46 15.4109L1006.25 14.2227ZM1006.25 38.3574L1008.04 39.5598L1008.05 39.5528L1008.05 39.5457L1006.25 38.3574ZM996.687 46.0288L995.834 44.0496L995.824 44.054L996.687 46.0288ZM964.363 48.7009L962.901 47.118L958.855 50.8558H964.363V48.7009ZM973.414 40.3399H975.569V35.4155L971.952 38.7571L973.414 40.3399ZM973.414 63.8713V66.0262H975.569V63.8713H973.414ZM989.188 63.8713L987.401 65.0763L988.042 66.0262H989.188V63.8713ZM974.362 41.8914V39.7365H970.309L972.575 43.0964L974.362 41.8914ZM995.911 41.8914L997.691 40.6769L997.049 39.7365H995.911V41.8914ZM1010.91 63.8713V66.0262H1014.99L1012.69 62.6567L1010.91 63.8713ZM973.414 42.581L971.876 44.0903L975.569 47.8536V42.581H973.414ZM964.363 33.3581V31.2032H959.229L962.825 34.8674L964.363 33.3581ZM987.033 31.4618L985.577 29.8733L985.56 29.8887L985.543 29.9046L987.033 31.4618ZM987.033 21.1183L985.543 22.6755L985.56 22.6913L985.577 22.7068L987.033 21.1183ZM964.363 19.222L962.825 17.7127L959.229 21.3769H964.363V19.222ZM973.414 9.99907H975.569V4.7265L971.876 8.48978L973.414 9.99907ZM1072.1 25.9453V23.7904H1069.95V25.9453H1072.1ZM1098.99 25.9453H1101.15V23.7904H1098.99V25.9453ZM1098.99 40.5985V42.7534H1101.15V40.5985H1098.99ZM1072.1 40.5985H1069.95V42.7534H1072.1V40.5985ZM1073.48 48.5285H1071.33V50.6834H1073.48V48.5285ZM1103.65 48.5285H1105.8V46.3736H1103.65V48.5285ZM1103.65 63.8713V66.0262H1105.8V63.8713H1103.65ZM1053.48 63.8713H1051.33V66.0262H1053.48V63.8713ZM1053.48 3.5344V1.37951H1051.33V3.5344H1053.48ZM1102.53 3.5344H1104.68V1.37951H1102.53V3.5344ZM1102.53 18.8772V21.0321H1104.68V18.8772H1102.53ZM1073.48 18.8772V16.7223H1071.33V18.8772H1073.48ZM1135.61 29.2207V27.0658H1133.46V29.2207H1135.61ZM1162.16 29.2207H1164.32V27.0658H1162.16V29.2207ZM1162.16 44.5635V46.7184H1164.32V44.5635H1162.16ZM1135.61 44.5635H1133.46V46.7184H1135.61V44.5635ZM1136.99 63.8713V66.0262H1139.15V63.8713H1136.99ZM1116.65 63.8713H1114.5V66.0262H1116.65V63.8713ZM1116.65 3.5344V1.37951H1114.5V3.5344H1116.65ZM1165.7 3.5344H1167.85V1.37951H1165.7V3.5344ZM1165.7 18.8772V21.0321H1167.85V18.8772H1165.7ZM1136.99 18.8772V16.7223H1134.84V18.8772H1136.99ZM1196.26 29.2207V27.0658H1194.1V29.2207H1196.26ZM1222.81 29.2207H1224.96V27.0658H1222.81V29.2207ZM1222.81 44.5635V46.7184H1224.96V44.5635H1222.81ZM1196.26 44.5635H1194.1V46.7184H1196.26V44.5635ZM1197.64 63.8713V66.0262H1199.79V63.8713H1197.64ZM1177.29 63.8713H1175.14V66.0262H1177.29V63.8713ZM1177.29 3.5344V1.37951H1175.14V3.5344H1177.29ZM1226.34 3.5344H1228.49V1.37951H1226.34V3.5344ZM1226.34 18.8772V21.0321H1228.49V18.8772H1226.34ZM1197.64 18.8772V16.7223H1195.48V18.8772H1197.64ZM1256.56 25.9453V23.7904H1254.4V25.9453H1256.56ZM1283.45 25.9453H1285.6V23.7904H1283.45V25.9453ZM1283.45 40.5985V42.7534H1285.6V40.5985H1283.45ZM1256.56 40.5985H1254.4V42.7534H1256.56V40.5985ZM1257.94 48.5285H1255.78V50.6834H1257.94V48.5285ZM1288.1 48.5285H1290.26V46.3736H1288.1V48.5285ZM1288.1 63.8713V66.0262H1290.26V63.8713H1288.1ZM1237.94 63.8713H1235.78V66.0262H1237.94V63.8713ZM1237.94 3.5344V1.37951H1235.78V3.5344H1237.94ZM1286.98 3.5344H1289.14V1.37951H1286.98V3.5344ZM1286.98 18.8772V21.0321H1289.14V18.8772H1286.98ZM1257.94 18.8772V16.7223H1255.78V18.8772H1257.94ZM1318.86 63.0094L1318.1 65.0235L1318.11 65.03L1318.13 65.0361L1318.86 63.0094ZM1308.17 56.4585L1306.7 58.0268L1306.7 58.0338L1306.71 58.0408L1308.17 56.4585ZM1301.19 46.4598L1299.21 47.3158L1301.19 46.4598ZM1301.19 20.9459L1299.21 20.0899L1301.19 20.9459ZM1308.17 10.9472L1306.71 9.36495L1306.7 9.3719L1306.7 9.37892L1308.17 10.9472ZM1318.86 4.48255L1319.6 6.50604L1319.61 6.50317L1319.62 6.50024L1318.86 4.48255ZM1348 5.25832L1347.1 7.21923L1347.11 7.22341L1348 5.25832ZM1359.37 14.2227L1360.81 15.8303L1362.3 14.5002L1361.09 12.9137L1359.37 14.2227ZM1346.53 25.6867L1344.84 27.0275L1346.26 28.8136L1347.97 27.2943L1346.53 25.6867ZM1340.58 20.5149L1339.48 22.3671L1339.51 22.3845L1339.54 22.401L1340.58 20.5149ZM1327.57 19.653L1328.37 21.6537L1327.57 19.653ZM1323.09 22.6698L1321.53 21.1803L1321.51 21.1984L1321.49 21.2168L1323.09 22.6698ZM1320.24 27.4968L1322.26 28.2534L1322.26 28.2433L1322.27 28.2332L1320.24 27.4968ZM1320.24 39.9951L1318.22 40.7316L1318.22 40.7417L1318.22 40.7518L1320.24 39.9951ZM1323.09 44.7359L1321.49 46.1889L1321.51 46.2073L1321.53 46.2254L1323.09 44.7359ZM1327.57 47.7527L1326.77 49.7535L1327.57 47.7527ZM1340.58 46.977L1341.65 48.8511L1341.66 48.8465L1341.66 48.8419L1340.58 46.977ZM1346.53 41.719L1347.97 40.1114L1346.26 38.5921L1344.84 40.3782L1346.53 41.719ZM1359.37 53.1831L1361.08 54.5043L1362.31 52.9151L1360.81 51.5754L1359.37 53.1831ZM1348 62.1474L1348.89 64.1083L1348.9 64.1032L1348 62.1474ZM1383.1 63.8713H1380.95V66.0262H1383.1V63.8713ZM1383.1 19.3082H1385.26V17.1533H1383.1V19.3082ZM1365.43 19.3082H1363.28V21.4631H1365.43V19.3082ZM1365.43 3.5344V1.37951H1363.28V3.5344H1365.43ZM1421.11 3.5344H1423.27V1.37951H1421.11V3.5344ZM1421.11 19.3082V21.4631H1423.27V19.3082H1421.11ZM1403.44 19.3082V17.1533H1401.29V19.3082H1403.44ZM1403.44 63.8713V66.0262H1405.6V63.8713H1403.44ZM1427.78 59.0444L1425.8 58.1734L1425.04 59.9086L1426.66 60.8891L1427.78 59.0444ZM1434.33 44.2187L1435.41 42.3547L1433.33 41.1481L1432.36 43.3478L1434.33 44.2187ZM1443.89 48.2699L1443.28 50.3367L1443.3 50.3426L1443.32 50.3481L1443.89 48.2699ZM1458.81 49.3904L1459.25 51.4991L1459.29 51.4908L1459.33 51.481L1458.81 49.3904ZM1461.31 48.2699L1462.74 49.8805L1462.78 49.8384L1462.83 49.7936L1461.31 48.2699ZM1460.27 43.8739L1459.27 45.7828V45.7828L1460.27 43.8739ZM1455.44 42.3224L1454.95 44.42L1454.99 44.4283L1455.02 44.4355L1455.44 42.3224ZM1448.98 40.9433L1448.52 43.0481L1448.54 43.0535L1448.57 43.0583L1448.98 40.9433ZM1441.83 38.9608L1441.13 41.0001L1441.14 41.0026L1441.14 41.0051L1441.83 38.9608ZM1435.27 35.7715L1434.07 37.5564L1434.08 37.5645L1434.09 37.5724L1435.27 35.7715ZM1430.53 30.5998L1428.65 31.6421L1428.65 31.6528L1428.66 31.6635L1430.53 30.5998ZM1431.83 12.3263L1430.05 11.1083L1430.04 11.1156L1431.83 12.3263ZM1441.22 4.91353L1440.36 2.93991L1440.35 2.94437L1441.22 4.91353ZM1468.89 3.44821L1468.43 5.55391L1468.89 3.44821ZM1479.58 7.4132L1481.57 8.23954L1482.3 6.47441L1480.64 5.53597L1479.58 7.4132ZM1473.46 22.1526L1472.5 24.08L1474.56 25.1138L1475.45 22.979L1473.46 22.1526ZM1464.75 18.791L1464.19 20.871L1464.2 20.8739L1464.75 18.791ZM1452 18.1876L1451.38 16.1236L1451.38 16.1236L1452 18.1876ZM1449.5 19.5668L1447.9 18.1252L1447.85 18.1718L1447.81 18.2206L1449.5 19.5668ZM1450.62 23.9628L1449.62 25.8716L1449.65 25.8907L1449.69 25.9083L1450.62 23.9628ZM1455.36 25.4281L1454.92 27.5387L1454.94 27.5411L1455.36 25.4281ZM1461.91 26.721L1461.5 28.836L1461.51 28.8378L1461.91 26.721ZM1469.06 28.6173L1468.37 30.6566L1469.06 28.6173ZM1475.53 31.8066L1474.32 33.5914L1474.33 33.5995L1474.34 33.6074L1475.53 31.8066ZM1480.35 36.9783L1478.48 38.042V38.042L1480.35 36.9783ZM1478.98 55.0794L1477.2 53.8613L1477.19 53.8686L1478.98 55.0794ZM1469.67 62.4922L1470.54 64.4613L1470.55 64.4563L1470.56 64.4511L1469.67 62.4922ZM-23.201 29.2207V31.3756H3.3472V29.2207V27.0658H-23.201V29.2207ZM3.3472 29.2207H1.19231V44.5635H3.3472H5.50209V29.2207H3.3472ZM3.3472 44.5635V42.4086H-23.201V44.5635V46.7184H3.3472V44.5635ZM-23.201 44.5635H-21.0461V29.2207H-23.201H-25.3559V44.5635H-23.201ZM-21.8219 63.8713V61.7164H-42.1641V63.8713V66.0262H-21.8219V63.8713ZM-42.1641 63.8713H-40.0092V3.5344H-42.1641H-44.319V63.8713H-42.1641ZM-42.1641 3.5344V5.68929H6.88122V3.5344V1.37951H-42.1641V3.5344ZM6.88122 3.5344H4.72633V18.8772H6.88122H9.03611V3.5344H6.88122ZM6.88122 18.8772V16.7223H-21.8219V18.8772V21.0321H6.88122V18.8772ZM-21.8219 18.8772H-23.9768V63.8713H-21.8219H-19.667V18.8772H-21.8219ZM18.4792 63.8713H20.6341V3.5344H18.4792H16.3243V63.8713H18.4792ZM18.4792 3.5344V5.68929H38.8214V3.5344V1.37951H18.4792V3.5344ZM38.8214 3.5344H36.6665V63.8713H38.8214H40.9763V3.5344H38.8214ZM38.8214 63.8713V61.7164H18.4792V63.8713V66.0262H38.8214V63.8713ZM85.0747 65.2504V63.0955C80.4125 63.0955 76.1522 62.383 72.2739 60.9826L71.542 63.0094L70.8102 65.0361C75.2067 66.6238 79.9682 67.4053 85.0747 67.4053V65.2504ZM71.542 63.0094L72.308 60.9952C68.4722 59.5365 65.1492 57.495 62.3166 54.8762L60.8538 56.4585L59.3909 58.0408C62.6495 61.0534 66.4521 63.3792 70.7761 65.0235L71.542 63.0094ZM60.8538 56.4585L62.3316 54.8902C59.5615 52.2799 57.4022 49.191 55.8495 45.6038L53.8719 46.4598L51.8944 47.3158C53.6746 51.4288 56.1698 55.0056 59.376 58.0268L60.8538 56.4585ZM53.8719 46.4598L55.8495 45.6038C54.3123 42.0522 53.5272 38.0953 53.5272 33.7029H51.3723H49.2174C49.2174 38.6195 50.0987 43.1673 51.8944 47.3158L53.8719 46.4598ZM51.3723 33.7029H53.5272C53.5272 29.3104 54.3123 25.3535 55.8495 21.8019L53.8719 20.9459L51.8944 20.0899C50.0987 24.2384 49.2174 28.7862 49.2174 33.7029H51.3723ZM53.8719 20.9459L55.8495 21.8019C57.3982 18.2239 59.5801 15.1392 62.4028 12.5295L60.94 10.9472L59.4771 9.36495C56.2087 12.3867 53.6786 15.9678 51.8944 20.0899L53.8719 20.9459ZM60.94 10.9472L62.4028 12.5295C65.2243 9.92098 68.5632 7.91158 72.4463 6.50935L71.7144 4.48255L70.9825 2.45576C66.5909 4.04164 62.7468 6.34202 59.4771 9.36495L60.94 10.9472ZM71.7144 4.48255L72.462 6.50363C76.391 5.05042 80.7316 4.31016 85.5057 4.31016V2.15527V0.000384092C80.2811 0.000384092 75.4275 0.811653 70.9669 2.46148L71.7144 4.48255ZM85.5057 2.15527V4.31016C91.2397 4.31016 96.2563 5.27454 100.597 7.15024L101.452 5.17212L102.307 3.19399C97.3384 1.04723 91.7242 0.000384092 85.5057 0.000384092V2.15527ZM101.452 5.17212L100.606 7.15402C105.018 9.03718 108.607 11.7057 111.418 15.1534L113.088 13.7917L114.758 12.4299C111.478 8.40738 107.31 5.32951 102.298 3.19021L101.452 5.17212ZM113.088 13.7917L111.664 12.1746L98.6485 23.6386L100.073 25.2557L101.497 26.8728L114.513 15.4087L113.088 13.7917ZM100.073 25.2557L101.7 23.8428C99.6435 21.4749 97.3506 19.6428 94.8105 18.4053L93.8667 20.3425L92.9229 22.2798C94.8649 23.2259 96.7095 24.6692 98.4458 26.6686L100.073 25.2557ZM93.8667 20.3425L94.8703 18.4356C92.3487 17.1085 89.5568 16.4637 86.5401 16.4637V18.6186V20.7735C88.9249 20.7735 91.0175 21.2781 92.8631 22.2494L93.8667 20.3425ZM86.5401 18.6186V16.4637C84.0766 16.4637 81.7759 16.8431 79.6636 17.6353L80.4202 19.653L81.1768 21.6707C82.7421 21.0837 84.5213 20.7735 86.5401 20.7735V18.6186ZM80.4202 19.653L79.6423 17.6434C77.5796 18.4419 75.787 19.6201 74.2946 21.1803L75.8518 22.6698L77.409 24.1593C78.445 23.0763 79.6981 22.2432 81.1981 21.6626L80.4202 19.653ZM75.8518 22.6698L74.2946 21.1803C72.8144 22.7278 71.6878 24.5626 70.9035 26.6539L72.9212 27.4106L74.9389 28.1672C75.5337 26.5809 76.3608 25.2552 77.409 24.1593L75.8518 22.6698ZM72.9212 27.4106L70.9035 26.6539C70.1071 28.7777 69.7319 31.1387 69.7319 33.7029H71.8868H74.0417C74.0417 31.555 74.3561 29.7211 74.9389 28.1672L72.9212 27.4106ZM71.8868 33.7029H69.7319C69.7319 36.1674 70.1117 38.4884 70.896 40.6454L72.9212 39.9089L74.9463 39.1725C74.3516 37.5369 74.0417 35.7204 74.0417 33.7029H71.8868ZM72.9212 39.9089L70.9035 40.6656C71.6878 42.7569 72.8144 44.5917 74.2946 46.1392L75.8518 44.6497L77.409 43.1602C76.3608 42.0643 75.5337 40.7386 74.9389 39.1523L72.9212 39.9089ZM75.8518 44.6497L74.2946 46.1392C75.7629 47.6742 77.497 48.8719 79.4772 49.73L80.334 47.7527L81.1908 45.7755C79.7232 45.1395 78.4691 44.2685 77.409 43.1602L75.8518 44.6497ZM80.334 47.7527L79.5561 49.7623C81.6184 50.5606 83.8695 50.942 86.2815 50.942V48.7871V46.6322C84.3262 46.6322 82.6123 46.3239 81.1119 45.7431L80.334 47.7527ZM86.2815 48.7871V50.942C88.8183 50.942 91.295 50.5289 93.7023 49.7054L93.0047 47.6665L92.3072 45.6277C90.3472 46.2982 88.3418 46.6322 86.2815 46.6322V48.7871ZM93.0047 47.6665L93.7497 49.6886C96.1926 48.7885 98.7097 47.3116 101.299 45.3248L99.9866 43.6153L98.6746 41.9058C96.3215 43.7117 94.1841 44.9355 92.2598 45.6445L93.0047 47.6665ZM99.9866 43.6153L98.316 44.9765L109.694 58.9402L111.364 57.579L113.035 56.2178L101.657 42.2542L99.9866 43.6153ZM111.364 57.579L110.163 55.7904C106.694 58.121 102.712 59.9269 98.1979 61.1931L98.7798 63.2679L99.3618 65.3428C104.271 63.9657 108.68 61.979 112.566 59.3677L111.364 57.579ZM98.7798 63.2679L98.1979 61.1931C93.6555 62.4672 89.2831 63.0955 85.0747 63.0955V65.2504V67.4053C89.7158 67.4053 94.4802 66.712 99.3618 65.3428L98.7798 63.2679ZM93.6943 54.9932H95.8492V32.0651H93.6943H91.5394V54.9932H93.6943ZM93.6943 32.0651V34.22H111.364V32.0651V29.9102H93.6943V32.0651ZM111.364 32.0651H109.21V57.579H111.364H113.519V32.0651H111.364ZM111.364 57.579L111.676 55.4468L94.0063 52.861L93.6943 54.9932L93.3823 57.1253L111.052 59.7112L111.364 57.579ZM125.203 63.8713H127.358V3.5344H125.203H123.049V63.8713H125.203ZM125.203 3.5344V5.68929H141.925V3.5344V1.37951H125.203V3.5344ZM141.925 3.5344L140.088 4.66018L164.223 44.0516L166.06 42.9258L167.898 41.8L143.763 2.40862L141.925 3.5344ZM166.06 42.9258V40.7709H157.268V42.9258V45.0807H166.06V42.9258ZM157.268 42.9258L159.12 44.0279L182.565 4.63652L180.713 3.5344L178.862 2.43228L155.417 41.8237L157.268 42.9258ZM180.713 3.5344V5.68929H197.435V3.5344V1.37951H180.713V3.5344ZM197.435 3.5344L195.281 3.54056L195.453 63.8775L197.608 63.8713L199.763 63.8652L199.59 3.52824L197.435 3.5344ZM197.608 63.8713V61.7164H179.076V63.8713V66.0262H197.608V63.8713ZM179.076 63.8713L181.231 63.8598L181.058 31.4503L178.903 31.4618L176.748 31.4732L176.921 63.8828L179.076 63.8713ZM178.903 31.4618V33.6167H181.834V31.4618V29.3069H178.903V31.4618ZM181.834 31.4618L179.981 30.3609L163.949 57.3401L165.802 58.441L167.654 59.5418L183.686 32.5626L181.834 31.4618ZM165.802 58.441V56.2861H156.837V58.441V60.5959H165.802V58.441ZM156.837 58.441L158.669 57.3057L141.947 30.3265L140.115 31.4618L138.284 32.597L155.006 59.5762L156.837 58.441ZM140.115 31.4618V33.6167H143.736V31.4618V29.3069H140.115V31.4618ZM143.736 31.4618H141.581V63.8713H143.736H145.89V31.4618H143.736ZM143.736 63.8713V61.7164H125.203V63.8713V66.0262H143.736V63.8713ZM206.064 63.8713L208.038 64.7344L234.414 4.39753L232.44 3.5344L230.465 2.67127L204.089 63.0082L206.064 63.8713ZM232.44 3.5344V5.68929H252.437V3.5344V1.37951H232.44V3.5344ZM252.437 3.5344L250.462 4.39753L276.838 64.7344L278.813 63.8713L280.787 63.0082L254.411 2.67127L252.437 3.5344ZM278.813 63.8713V61.7164H257.781V63.8713V66.0262H278.813V63.8713ZM257.781 63.8713L259.792 63.0982L240.312 12.4152L238.301 13.1883L236.289 13.9614L255.77 64.6444L257.781 63.8713ZM238.301 13.1883V15.3432H246.231V13.1883V11.0334H238.301V13.1883ZM246.231 13.1883L244.219 12.4152L224.739 63.0982L226.751 63.8713L228.762 64.6444L248.242 13.9614L246.231 13.1883ZM226.751 63.8713V61.7164H206.064V63.8713V66.0262H226.751V63.8713ZM221.751 53.3554L223.783 54.0726L228.955 39.4194L226.923 38.7022L224.891 37.985L219.719 52.6383L221.751 53.3554ZM226.923 38.7022V40.8571H254.678V38.7022V36.5473H226.923V38.7022ZM254.678 38.7022L252.646 39.4194L257.818 54.0726L259.85 53.3554L261.882 52.6383L256.71 37.985L254.678 38.7022ZM259.85 53.3554V51.2006H221.751V53.3554V55.5103H259.85V53.3554ZM331.58 65.2504V63.0955C326.688 63.0955 321.975 62.5398 317.437 61.433L316.927 63.5265L316.416 65.62C321.302 66.8118 326.358 67.4053 331.58 67.4053V65.2504ZM316.927 63.5265L317.437 61.433C312.866 60.3181 309.208 58.8928 306.404 57.1996L305.29 59.0444L304.177 60.8891C307.463 62.8736 311.563 64.4364 316.416 65.62L316.927 63.5265ZM305.29 59.0444L307.261 59.9153L313.812 45.0896L311.841 44.2187L309.87 43.3478L303.319 58.1734L305.29 59.0444ZM311.841 44.2187L310.76 46.0828C313.796 47.8434 317.145 49.2586 320.799 50.3367L321.409 48.2699L322.019 46.2031C318.662 45.2125 315.633 43.9269 312.922 42.3547L311.841 44.2187ZM321.409 48.2699L320.839 50.3481C324.568 51.3704 328.207 51.8901 331.752 51.8901V49.7352V47.5803C328.632 47.5803 325.376 47.1231 321.979 46.1917L321.409 48.2699ZM331.752 49.7352V51.8901C333.762 51.8901 335.457 51.7743 336.765 51.4991L336.321 49.3904L335.877 47.2818C335 47.4663 333.65 47.5803 331.752 47.5803V49.7352ZM336.321 49.3904L336.843 51.481C338.121 51.1616 339.351 50.6811 340.252 49.8805L338.82 48.2699L337.389 46.6593C337.255 46.7782 336.819 47.0447 335.798 47.2999L336.321 49.3904ZM338.82 48.2699L340.344 49.7936C341.238 48.8996 341.751 47.7582 341.751 46.4598H339.596H337.441C337.441 46.5405 337.437 46.6059 337.297 46.7462L338.82 48.2699ZM339.596 46.4598H341.751C341.751 44.3553 340.494 42.8597 338.786 41.9651L337.786 43.8739L336.786 45.7828C337.171 45.9846 337.324 46.1524 337.378 46.2302C337.416 46.2847 337.441 46.3383 337.441 46.4598H339.596ZM337.786 43.8739L338.786 41.9651C337.331 41.2027 335.503 40.6337 333.382 40.2094L332.959 42.3224L332.536 44.4355C334.437 44.8156 335.828 45.281 336.786 45.7828L337.786 43.8739ZM332.959 42.3224L333.453 40.2248C331.467 39.7577 329.285 39.2923 326.907 38.8283L326.494 40.9433L326.082 43.0583C328.416 43.5137 330.543 43.9677 332.466 44.42L332.959 42.3224ZM326.494 40.9433L326.956 38.8385C324.678 38.3385 322.367 37.6983 320.022 36.9165L319.34 38.9608L318.659 41.0051C321.14 41.8323 323.598 42.5138 326.032 43.0481L326.494 40.9433ZM319.34 38.9608L320.036 36.9215C317.846 36.1736 315.827 35.1893 313.973 33.9707L312.789 35.7715L311.606 37.5724C313.774 38.9971 316.122 40.139 318.644 41.0001L319.34 38.9608ZM312.789 35.7715L313.997 33.9867C312.328 32.8578 310.972 31.3846 309.923 29.5361L308.049 30.5998L306.174 31.6635C307.539 34.0673 309.343 36.042 311.582 37.5564L312.789 35.7715ZM308.049 30.5998L309.935 29.5575C308.948 27.7724 308.393 25.4538 308.393 22.4974H306.238H304.084C304.084 25.977 304.736 29.06 306.163 31.6421L308.049 30.5998ZM306.238 22.4974H308.393C308.393 19.1874 309.302 16.2201 311.124 13.5371L309.341 12.3263L307.559 11.1156C305.244 14.5238 304.084 18.3372 304.084 22.4974H306.238ZM309.341 12.3263L311.119 13.5444C312.978 10.8319 315.764 8.5927 319.612 6.8827L318.737 4.91353L317.862 2.94437C313.434 4.91204 309.958 7.61475 307.564 11.1083L309.341 12.3263ZM318.737 4.91353L319.602 6.88713C323.446 5.20226 328.33 4.31016 334.338 4.31016V2.15527V0.000384092C327.934 0.000384092 322.418 0.947127 317.872 2.93994L318.737 4.91353ZM334.338 2.15527V4.31016C338.265 4.31016 342.134 4.72483 345.948 5.55391L346.406 3.44821L346.863 1.3425C342.747 0.447669 338.571 0.000384092 334.338 0.000384092V2.15527ZM346.406 3.44821L345.948 5.55391C349.727 6.37547 353.084 7.62647 356.036 9.29044L357.094 7.4132L358.152 5.53597C354.783 3.63719 351.014 2.24485 346.863 1.3425L346.406 3.44821ZM357.094 7.4132L355.104 6.58688L348.984 21.3263L350.974 22.1526L352.964 22.979L359.084 8.23953L357.094 7.4132ZM350.974 22.1526L351.938 20.2253C348.837 18.6749 345.797 17.4979 342.821 16.7082L342.268 18.791L341.716 20.8739C344.37 21.5782 347.135 22.6423 350.01 24.08L350.974 22.1526ZM342.268 18.791L342.832 16.7111C339.904 15.9183 337.014 15.5156 334.166 15.5156V17.6705V19.8254C336.604 19.8254 339.115 20.1697 341.705 20.871L342.268 18.791ZM334.166 17.6705V15.5156C332.116 15.5156 330.328 15.6928 328.892 16.1236L329.511 18.1876L330.13 20.2517C330.993 19.9929 332.308 19.8254 334.166 19.8254V17.6705ZM329.511 18.1876L328.892 16.1236C327.556 16.5244 326.299 17.1373 325.41 18.1252L327.012 19.5668L328.613 21.0083C328.759 20.847 329.168 20.5404 330.13 20.2517L329.511 18.1876ZM327.012 19.5668L325.329 18.2206C324.586 19.1498 324.167 20.25 324.167 21.4631H326.322H328.477C328.477 21.297 328.518 21.133 328.694 20.9129L327.012 19.5668ZM326.322 21.4631H324.167C324.167 23.5571 325.478 25.0049 327.132 25.8716L328.132 23.9628L329.132 22.0539C328.732 21.8444 328.574 21.674 328.52 21.5999C328.486 21.5531 328.477 21.529 328.477 21.4631H326.322ZM328.132 23.9628L327.206 25.9083C328.626 26.5844 330.389 27.1168 332.438 27.5387L332.873 25.4281L333.307 23.3175C331.449 22.9349 330.052 22.4903 329.059 22.0172L328.132 23.9628ZM332.873 25.4281L332.45 27.5411C334.465 27.9441 336.652 28.3758 339.011 28.836L339.424 26.721L339.836 24.606C337.483 24.1468 335.303 23.7165 333.295 23.315L332.873 25.4281ZM339.424 26.721L339.021 28.8378C341.333 29.2784 343.62 29.8844 345.882 30.6566L346.578 28.6173L347.274 26.578C344.824 25.7413 342.341 25.0831 339.827 24.6042L339.424 26.721ZM346.578 28.6173L345.882 30.6566C348.067 31.4027 350.048 32.3826 351.835 33.5914L353.043 31.8066L354.25 30.0217C352.129 28.5872 349.801 27.4409 347.274 26.578L346.578 28.6173ZM353.043 31.8066L351.859 33.6074C353.58 34.7385 354.955 36.2079 355.996 38.042L357.87 36.9783L359.744 35.9146C358.371 33.4964 356.527 31.518 354.226 30.0057L353.043 31.8066ZM357.87 36.9783L355.996 38.042C356.972 39.7623 357.525 42.0141 357.525 44.9083H359.68H361.835C361.835 41.4814 361.181 38.4466 359.744 35.9146L357.87 36.9783ZM359.68 44.9083H357.525C357.525 48.1408 356.599 51.1082 354.713 53.8613L356.49 55.0794L358.268 56.2974C360.634 52.8444 361.835 49.0312 361.835 44.9083H359.68ZM356.49 55.0794L354.708 53.8686C352.907 56.5198 350.147 58.7623 346.284 60.5332L347.181 62.4922L348.079 64.4511C352.49 62.4294 355.936 59.7301 358.273 56.2902L356.49 55.0794ZM347.181 62.4922L346.306 60.523C342.529 62.202 337.65 63.0955 331.58 63.0955V65.2504V67.4053C338.037 67.4053 343.559 66.4601 348.057 64.4613L347.181 62.4922ZM370.905 63.8713H373.06V3.5344H370.905H368.75V63.8713H370.905ZM370.905 3.5344V5.68929H399.953V3.5344V1.37951H370.905V3.5344ZM399.953 3.5344V5.68929C405.355 5.68929 409.895 6.57183 413.634 8.25723L414.52 6.29266L415.405 4.32809C410.985 2.33581 405.813 1.37951 399.953 1.37951V3.5344ZM414.52 6.29266L413.644 8.26182C417.441 9.94916 420.289 12.3336 422.281 15.397L424.087 14.2227L425.894 13.0483C423.403 9.21606 419.873 6.31384 415.395 4.3235L414.52 6.29266ZM424.087 14.2227L422.29 15.4109C424.265 18.3996 425.294 21.9949 425.294 26.29H427.449H429.604C429.604 21.2761 428.392 16.8265 425.885 13.0344L424.087 14.2227ZM427.449 26.29H425.294C425.294 30.5852 424.265 34.1805 422.29 37.1691L424.087 38.3574L425.885 39.5457C428.392 35.7536 429.604 31.304 429.604 26.29H427.449ZM424.087 38.3574L422.29 37.1691C420.297 40.1844 417.438 42.5792 413.622 44.3285L414.52 46.2874L415.417 48.2463C419.876 46.203 423.396 43.3111 425.885 39.5457L424.087 38.3574ZM414.52 46.2874L413.634 44.3228C409.895 46.0082 405.355 46.8908 399.953 46.8908V49.0457V51.2006C405.813 51.2006 410.985 50.2443 415.405 48.252L414.52 46.2874ZM399.953 49.0457V46.8908H382.196V49.0457V51.2006H399.953V49.0457ZM382.196 49.0457L383.69 50.5987L392.741 41.8929L391.247 40.3399L389.753 38.7869L380.702 47.4926L382.196 49.0457ZM391.247 40.3399H389.092V63.8713H391.247H393.402V40.3399H391.247ZM391.247 63.8713V61.7164H370.905V63.8713V66.0262H391.247V63.8713ZM391.247 42.581L392.785 41.0717L383.734 31.8488L382.196 33.3581L380.658 34.8674L389.709 44.0903L391.247 42.581ZM382.196 33.3581V35.513H398.66V33.3581V31.2032H382.196V33.3581ZM398.66 33.3581V35.513C401.739 35.513 404.463 34.8293 406.355 33.019L404.866 31.4618L403.376 29.9046C402.625 30.6227 401.211 31.2032 398.66 31.2032V33.3581ZM404.866 31.4618L406.322 33.0503C408.222 31.3087 409.089 28.9671 409.089 26.29H406.934H404.78C404.78 27.9802 404.268 29.0864 403.41 29.8733L404.866 31.4618ZM406.934 26.29H409.089C409.089 23.613 408.222 21.2713 406.322 19.5298L404.866 21.1183L403.41 22.7068C404.268 23.4937 404.78 24.5999 404.78 26.29H406.934ZM404.866 21.1183L406.355 19.5611C404.463 17.7508 401.739 17.0671 398.66 17.0671V19.222V21.3769C401.211 21.3769 402.625 21.9574 403.376 22.6755L404.866 21.1183ZM398.66 19.222V17.0671H382.196V19.222V21.3769H398.66V19.222ZM382.196 19.222L383.734 20.7313L392.785 11.5084L391.247 9.99907L389.709 8.48978L380.658 17.7127L382.196 19.222ZM391.247 9.99907H389.092V42.581H391.247H393.402V9.99907H391.247ZM439.292 63.8713H441.447V3.5344H439.292H437.137V63.8713H439.292ZM439.292 3.5344V5.68929H459.634V3.5344V1.37951H439.292V3.5344ZM459.634 3.5344H457.479V48.0975H459.634H461.789V3.5344H459.634ZM459.634 48.0975V50.2524H486.872V48.0975V45.9426H459.634V48.0975ZM486.872 48.0975H484.717V63.8713H486.872H489.027V48.0975H486.872ZM486.872 63.8713V61.7164H439.292V63.8713V66.0262H486.872V63.8713ZM497.663 63.8713H499.818V3.5344H497.663H495.508V63.8713H497.663ZM497.663 3.5344V5.68929H518.005V3.5344V1.37951H497.663V3.5344ZM518.005 3.5344H515.85V63.8713H518.005H520.16V3.5344H518.005ZM518.005 63.8713V61.7164H497.663V63.8713V66.0262H518.005V63.8713ZM532.969 63.8713H535.124V3.5344H532.969H530.814V63.8713H532.969ZM532.969 3.5344V5.68929H549.691V3.5344V1.37951H532.969V3.5344ZM549.691 3.5344L548.038 4.91622L578.723 41.6355L580.377 40.2537L582.03 38.8719L551.345 2.15258L549.691 3.5344ZM580.377 40.2537V38.0988H572.619V40.2537V42.4086H580.377V40.2537ZM572.619 40.2537H574.774V3.5344H572.619H570.464V40.2537H572.619ZM572.619 3.5344V5.68929H592.444V3.5344V1.37951H572.619V3.5344ZM592.444 3.5344H590.289V63.8713H592.444H594.599V3.5344H592.444ZM592.444 63.8713V61.7164H575.722V63.8713V66.0262H592.444V63.8713ZM575.722 63.8713L577.376 62.4895L546.69 25.7702L545.037 27.152L543.383 28.5338L574.069 65.2531L575.722 63.8713ZM545.037 27.152V29.3069H552.794V27.152V24.9971H545.037V27.152ZM552.794 27.152H550.639V63.8713H552.794H554.949V27.152H552.794ZM552.794 63.8713V61.7164H532.969V63.8713V66.0262H552.794V63.8713ZM626.036 25.9453V28.1001H652.928V25.9453V23.7904H626.036V25.9453ZM652.928 25.9453H650.774V40.5985H652.928H655.083V25.9453H652.928ZM652.928 40.5985V38.4436H626.036V40.5985V42.7534H652.928V40.5985ZM626.036 40.5985H628.19V25.9453H626.036H623.881V40.5985H626.036ZM627.415 48.5285V50.6834H657.583V48.5285V46.3736H627.415V48.5285ZM657.583 48.5285H655.428V63.8713H657.583H659.738V48.5285H657.583ZM657.583 63.8713V61.7164H607.417V63.8713V66.0262H657.583V63.8713ZM607.417 63.8713H609.572V3.5344H607.417H605.262V63.8713H607.417ZM607.417 3.5344V5.68929H656.463V3.5344V1.37951H607.417V3.5344ZM656.463 3.5344H654.308V18.8772H656.463H658.617V3.5344H656.463ZM656.463 18.8772V16.7223H627.415V18.8772V21.0321H656.463V18.8772ZM627.415 18.8772H625.26V48.5285H627.415H629.57V18.8772H627.415ZM686.102 63.8713L688.077 64.7344L714.453 4.39753L712.478 3.5344L710.504 2.67127L684.128 63.0082L686.102 63.8713ZM712.478 3.5344V5.68929H732.476V3.5344V1.37951H712.478V3.5344ZM732.476 3.5344L730.501 4.39753L756.877 64.7344L758.851 63.8713L760.826 63.0082L734.45 2.67127L732.476 3.5344ZM758.851 63.8713V61.7164H737.82V63.8713V66.0262H758.851V63.8713ZM737.82 63.8713L739.831 63.0982L720.351 12.4152L718.34 13.1883L716.328 13.9614L735.808 64.6444L737.82 63.8713ZM718.34 13.1883V15.3432H726.269V13.1883V11.0334H718.34V13.1883ZM726.269 13.1883L724.258 12.4152L704.778 63.0982L706.789 63.8713L708.801 64.6444L728.281 13.9614L726.269 13.1883ZM706.789 63.8713V61.7164H686.102V63.8713V66.0262H706.789V63.8713ZM701.79 53.3554L703.822 54.0726L708.994 39.4194L706.962 38.7022L704.93 37.985L699.758 52.6382L701.79 53.3554ZM706.962 38.7022V40.8571H734.717V38.7022V36.5473H706.962V38.7022ZM734.717 38.7022L732.685 39.4194L737.856 54.0726L739.888 53.3554L741.92 52.6382L736.749 37.985L734.717 38.7022ZM739.888 53.3554V51.2006H701.79V53.3554V55.5103H739.888V53.3554ZM786.233 29.2207V31.3756H812.781V29.2207V27.0658H786.233V29.2207ZM812.781 29.2207H810.626V44.5635H812.781H814.936V29.2207H812.781ZM812.781 44.5635V42.4086H786.233V44.5635V46.7184H812.781V44.5635ZM786.233 44.5635H788.388V29.2207H786.233H784.078V44.5635H786.233ZM787.612 63.8713V61.7164H767.27V63.8713V66.0262H787.612V63.8713ZM767.27 63.8713H769.424V3.5344H767.27H765.115V63.8713H767.27ZM767.27 3.5344V5.68929H816.315V3.5344V1.37951H767.27V3.5344ZM816.315 3.5344H814.16V18.8772H816.315H818.47V3.5344H816.315ZM816.315 18.8772V16.7223H787.612V18.8772V21.0321H816.315V18.8772ZM787.612 18.8772H785.457V63.8713H787.612H789.767V18.8772H787.612ZM841.436 63.8713H843.59V19.3082H841.436H839.281V63.8713H841.436ZM841.436 19.3082V17.1533H823.765V19.3082V21.4631H841.436V19.3082ZM823.765 19.3082H825.92V3.5344H823.765H821.61V19.3082H823.765ZM823.765 3.5344V5.68929H879.448V3.5344V1.37951H823.765V3.5344ZM879.448 3.5344H877.293V19.3082H879.448H881.603V3.5344H879.448ZM879.448 19.3082V17.1533H861.778V19.3082V21.4631H879.448V19.3082ZM861.778 19.3082H859.623V63.8713H861.778H863.933V19.3082H861.778ZM861.778 63.8713V61.7164H841.436V63.8713V66.0262H861.778V63.8713ZM908.521 25.9453V28.1001H935.414V25.9453V23.7904H908.521V25.9453ZM935.414 25.9453H933.259V40.5985H935.414H937.569V25.9453H935.414ZM935.414 40.5985V38.4436H908.521V40.5985V42.7534H935.414V40.5985ZM908.521 40.5985H910.676V25.9453H908.521H906.366V40.5985H908.521ZM909.9 48.5285V50.6834H940.069V48.5285V46.3736H909.9V48.5285ZM940.069 48.5285H937.914V63.8713H940.069H942.224V48.5285H940.069ZM940.069 63.8713V61.7164H889.903V63.8713V66.0262H940.069V63.8713ZM889.903 63.8713H892.058V3.5344H889.903H887.748V63.8713H889.903ZM889.903 3.5344V5.68929H938.948V3.5344V1.37951H889.903V3.5344ZM938.948 3.5344H936.793V18.8772H938.948H941.103V3.5344H938.948ZM938.948 18.8772V16.7223H909.9V18.8772V21.0321H938.948V18.8772ZM909.9 18.8772H907.745V48.5285H909.9H912.055V18.8772H909.9ZM953.072 63.8713H955.227V3.5344H953.072H950.917V63.8713H953.072ZM953.072 3.5344V5.68929H982.12V3.5344V1.37951H953.072V3.5344ZM982.12 3.5344V5.68929C987.522 5.68929 992.062 6.57183 995.801 8.25723L996.687 6.29266L997.572 4.32809C993.152 2.33582 987.98 1.37951 982.12 1.37951V3.5344ZM996.687 6.29266L995.811 8.26182C999.608 9.94916 1002.46 12.3336 1004.45 15.397L1006.25 14.2227L1008.06 13.0483C1005.57 9.21606 1002.04 6.31384 997.562 4.3235L996.687 6.29266ZM1006.25 14.2227L1004.46 15.4109C1006.43 18.3996 1007.46 21.9949 1007.46 26.29H1009.62H1011.77C1011.77 21.2761 1010.56 16.8265 1008.05 13.0344L1006.25 14.2227ZM1009.62 26.29H1007.46C1007.46 30.5852 1006.43 34.1805 1004.46 37.1691L1006.25 38.3574L1008.05 39.5457C1010.56 35.7536 1011.77 31.304 1011.77 26.29H1009.62ZM1006.25 38.3574L1004.47 37.155C1002.48 40.1037 999.639 42.4113 995.834 44.0496L996.687 46.0288L997.539 48.0081C1002.01 46.0835 1005.54 43.2769 1008.04 39.5598L1006.25 38.3574ZM996.687 46.0288L995.824 44.054C992.078 45.6896 987.53 46.546 982.12 46.546V48.7009V50.8558C987.972 50.8558 993.135 49.9308 997.549 48.0037L996.687 46.0288ZM982.12 48.7009V46.546H964.363V48.7009V50.8558H982.12V48.7009ZM964.363 48.7009L965.825 50.2837L974.876 41.9228L973.414 40.3399L971.952 38.7571L962.901 47.118L964.363 48.7009ZM973.414 40.3399H971.259V63.8713H973.414H975.569V40.3399H973.414ZM973.414 63.8713V61.7164H953.072V63.8713V66.0262H973.414V63.8713ZM989.188 63.8713L990.974 62.6663L976.148 40.6864L974.362 41.8914L972.575 43.0964L987.401 65.0763L989.188 63.8713ZM974.362 41.8914V44.0463H995.911V41.8914V39.7365H974.362V41.8914ZM995.911 41.8914L994.131 43.106L1009.13 65.0859L1010.91 63.8713L1012.69 62.6567L997.691 40.6769L995.911 41.8914ZM1010.91 63.8713V61.7164H989.188V63.8713V66.0262H1010.91V63.8713ZM973.414 42.581L974.952 41.0717L965.901 31.8488L964.363 33.3581L962.825 34.8674L971.876 44.0903L973.414 42.581ZM964.363 33.3581V35.513H980.827V33.3581V31.2032H964.363V33.3581ZM980.827 33.3581V35.513C983.906 35.513 986.63 34.8293 988.522 33.019L987.033 31.4618L985.543 29.9046C984.792 30.6227 983.378 31.2032 980.827 31.2032V33.3581ZM987.033 31.4618L988.489 33.0503C990.389 31.3088 991.256 28.9672 991.256 26.29H989.101H986.946C986.946 27.9801 986.435 29.0864 985.577 29.8733L987.033 31.4618ZM989.101 26.29H991.256C991.256 23.6129 990.389 21.2713 988.489 19.5298L987.033 21.1183L985.577 22.7068C986.435 23.4937 986.946 24.5999 986.946 26.29H989.101ZM987.033 21.1183L988.522 19.5611C986.63 17.7508 983.906 17.0671 980.827 17.0671V19.222V21.3769C983.378 21.3769 984.792 21.9574 985.543 22.6755L987.033 21.1183ZM980.827 19.222V17.0671H964.363V19.222V21.3769H980.827V19.222ZM964.363 19.222L965.901 20.7313L974.952 11.5084L973.414 9.99907L971.876 8.48978L962.825 17.7127L964.363 19.222ZM973.414 9.99907H971.259V42.581H973.414H975.569V9.99907H973.414ZM1072.1 25.9453V28.1001H1098.99V25.9453V23.7904H1072.1V25.9453ZM1098.99 25.9453H1096.84V40.5985H1098.99H1101.15V25.9453H1098.99ZM1098.99 40.5985V38.4436H1072.1V40.5985V42.7534H1098.99V40.5985ZM1072.1 40.5985H1074.26V25.9453H1072.1H1069.95V40.5985H1072.1ZM1073.48 48.5285V50.6834H1103.65V48.5285V46.3736H1073.48V48.5285ZM1103.65 48.5285H1101.49V63.8713H1103.65H1105.8V48.5285H1103.65ZM1103.65 63.8713V61.7164H1053.48V63.8713V66.0262H1103.65V63.8713ZM1053.48 63.8713H1055.64V3.5344H1053.48H1051.33V63.8713H1053.48ZM1053.48 3.5344V5.68929H1102.53V3.5344V1.37951H1053.48V3.5344ZM1102.53 3.5344H1100.37V18.8772H1102.53H1104.68V3.5344H1102.53ZM1102.53 18.8772V16.7223H1073.48V18.8772V21.0321H1102.53V18.8772ZM1073.48 18.8772H1071.33V48.5285H1073.48H1075.64V18.8772H1073.48ZM1135.61 29.2207V31.3756H1162.16V29.2207V27.0658H1135.61V29.2207ZM1162.16 29.2207H1160.01V44.5635H1162.16H1164.32V29.2207H1162.16ZM1162.16 44.5635V42.4086H1135.61V44.5635V46.7184H1162.16V44.5635ZM1135.61 44.5635H1137.77V29.2207H1135.61H1133.46V44.5635H1135.61ZM1136.99 63.8713V61.7164H1116.65V63.8713V66.0262H1136.99V63.8713ZM1116.65 63.8713H1118.81V3.5344H1116.65H1114.5V63.8713H1116.65ZM1116.65 3.5344V5.68929H1165.7V3.5344V1.37951H1116.65V3.5344ZM1165.7 3.5344H1163.54V18.8772H1165.7H1167.85V3.5344H1165.7ZM1165.7 18.8772V16.7223H1136.99V18.8772V21.0321H1165.7V18.8772ZM1136.99 18.8772H1134.84V63.8713H1136.99H1139.15V18.8772H1136.99ZM1196.26 29.2207V31.3756H1222.81V29.2207V27.0658H1196.26V29.2207ZM1222.81 29.2207H1220.65V44.5635H1222.81H1224.96V29.2207H1222.81ZM1222.81 44.5635V42.4086H1196.26V44.5635V46.7184H1222.81V44.5635ZM1196.26 44.5635H1198.41V29.2207H1196.26H1194.1V44.5635H1196.26ZM1197.64 63.8713V61.7164H1177.29V63.8713V66.0262H1197.64V63.8713ZM1177.29 63.8713H1179.45V3.5344H1177.29H1175.14V63.8713H1177.29ZM1177.29 3.5344V5.68929H1226.34V3.5344V1.37951H1177.29V3.5344ZM1226.34 3.5344H1224.18V18.8772H1226.34H1228.49V3.5344H1226.34ZM1226.34 18.8772V16.7223H1197.64V18.8772V21.0321H1226.34V18.8772ZM1197.64 18.8772H1195.48V63.8713H1197.64H1199.79V18.8772H1197.64ZM1256.56 25.9453V28.1001H1283.45V25.9453V23.7904H1256.56V25.9453ZM1283.45 25.9453H1281.29V40.5985H1283.45H1285.6V25.9453H1283.45ZM1283.45 40.5985V38.4436H1256.56V40.5985V42.7534H1283.45V40.5985ZM1256.56 40.5985H1258.71V25.9453H1256.56H1254.4V40.5985H1256.56ZM1257.94 48.5285V50.6834H1288.1V48.5285V46.3736H1257.94V48.5285ZM1288.1 48.5285H1285.95V63.8713H1288.1H1290.26V48.5285H1288.1ZM1288.1 63.8713V61.7164H1237.94V63.8713V66.0262H1288.1V63.8713ZM1237.94 63.8713H1240.09V3.5344H1237.94H1235.78V63.8713H1237.94ZM1237.94 3.5344V5.68929H1286.98V3.5344V1.37951H1237.94V3.5344ZM1286.98 3.5344H1284.83V18.8772H1286.98H1289.14V3.5344H1286.98ZM1286.98 18.8772V16.7223H1257.94V18.8772V21.0321H1286.98V18.8772ZM1257.94 18.8772H1255.78V48.5285H1257.94H1260.09V18.8772H1257.94ZM1332.31 65.2504V63.0955C1327.71 63.0955 1323.48 62.384 1319.59 60.9826L1318.86 63.0094L1318.13 65.0361C1322.52 66.6228 1327.26 67.4053 1332.31 67.4053V65.2504ZM1318.86 63.0094L1319.63 60.9952C1315.79 59.5365 1312.47 57.495 1309.64 54.8762L1308.17 56.4585L1306.71 58.0408C1309.97 61.0534 1313.77 63.3792 1318.1 65.0235L1318.86 63.0094ZM1308.17 56.4585L1309.65 54.8902C1306.88 52.2799 1304.72 49.1909 1303.17 45.6038L1301.19 46.4598L1299.21 47.3158C1301 51.4288 1303.49 55.0057 1306.7 58.0268L1308.17 56.4585ZM1301.19 46.4598L1303.17 45.6038C1301.63 42.0522 1300.85 38.0954 1300.85 33.7029H1298.69H1296.54C1296.54 38.6194 1297.42 43.1672 1299.21 47.3158L1301.19 46.4598ZM1298.69 33.7029H1300.85C1300.85 29.3103 1301.63 25.3535 1303.17 21.8019L1301.19 20.9459L1299.21 20.0899C1297.42 24.2385 1296.54 28.7863 1296.54 33.7029H1298.69ZM1301.19 20.9459L1303.17 21.8019C1304.72 18.2148 1306.88 15.1259 1309.65 12.5155L1308.17 10.9472L1306.7 9.37892C1303.49 12.4 1301 15.9769 1299.21 20.0899L1301.19 20.9459ZM1308.17 10.9472L1309.64 12.5295C1312.46 9.91622 1315.78 7.90689 1319.6 6.50604L1318.86 4.48255L1318.12 2.45907C1313.79 4.04633 1309.98 6.34678 1306.71 9.36495L1308.17 10.9472ZM1318.86 4.48255L1319.62 6.50024C1323.49 5.04748 1327.72 4.31016 1332.31 4.31016V2.15527V0.000384092C1327.25 0.000384092 1322.51 0.814591 1318.11 2.46487L1318.86 4.48255ZM1332.31 2.15527V4.31016C1337.98 4.31016 1342.89 5.29996 1347.1 7.2192L1348 5.25832L1348.89 3.29743C1344.02 1.07928 1338.48 0.000384092 1332.31 0.000384092V2.15527ZM1348 5.25832L1347.11 7.22341C1351.39 9.1492 1354.9 11.9153 1357.66 15.5316L1359.37 14.2227L1361.09 12.9137C1357.88 8.71494 1353.8 5.50482 1348.88 3.29322L1348 5.25832ZM1359.37 14.2227L1357.94 12.615L1345.1 24.0791L1346.53 25.6867L1347.97 27.2943L1360.81 15.8303L1359.37 14.2227ZM1346.53 25.6867L1348.22 24.3458C1346.29 21.9148 1344.09 19.9918 1341.63 18.6289L1340.58 20.5149L1339.54 22.401C1341.44 23.4515 1343.21 24.9764 1344.84 27.0275L1346.53 25.6867ZM1340.58 20.5149L1341.69 18.6627C1339.2 17.1824 1336.4 16.4637 1333.34 16.4637V18.6186V20.7735C1335.69 20.7735 1337.72 21.319 1339.48 22.3671L1340.58 20.5149ZM1333.34 18.6186V16.4637C1330.98 16.4637 1328.78 16.8472 1326.77 17.6522L1327.57 19.653L1328.37 21.6537C1329.8 21.0797 1331.45 20.7735 1333.34 20.7735V18.6186ZM1327.57 19.653L1326.77 17.6522C1324.76 18.4544 1323.01 19.6326 1321.53 21.1803L1323.09 22.6698L1324.64 24.1593C1325.69 23.0637 1326.93 22.2307 1328.37 21.6537L1327.57 19.653ZM1323.09 22.6698L1321.49 21.2168C1320.08 22.7716 1318.99 24.6328 1318.22 26.7604L1320.24 27.4968L1322.27 28.2332C1322.87 26.5682 1323.68 25.2114 1324.68 24.1228L1323.09 22.6698ZM1320.24 27.4968L1318.22 26.7401C1317.43 28.8583 1317.05 31.1891 1317.05 33.7029H1319.21H1321.36C1321.36 31.6195 1321.67 29.8129 1322.26 28.2534L1320.24 27.4968ZM1319.21 33.7029H1317.05C1317.05 36.218 1317.43 38.5688 1318.22 40.7316L1320.24 39.9951L1322.27 39.2587C1321.67 37.6289 1321.36 35.7848 1321.36 33.7029H1319.21ZM1320.24 39.9951L1318.22 40.7518C1319 42.8227 1320.09 44.6455 1321.49 46.1889L1323.09 44.7359L1324.68 43.2829C1323.67 42.183 1322.86 40.8453 1322.26 39.2385L1320.24 39.9951ZM1323.09 44.7359L1321.53 46.2254C1323.01 47.7731 1324.76 48.9513 1326.77 49.7535L1327.57 47.7527L1328.37 45.752C1326.93 45.175 1325.69 44.342 1324.64 43.2464L1323.09 44.7359ZM1327.57 47.7527L1326.77 49.7535C1328.78 50.5586 1330.98 50.942 1333.34 50.942V48.7871V46.6322C1331.45 46.6322 1329.8 46.326 1328.37 45.752L1327.57 47.7527ZM1333.34 48.7871V50.942C1336.38 50.942 1339.16 50.2606 1341.65 48.8511L1340.58 46.977L1339.52 45.1029C1337.75 46.1068 1335.71 46.6322 1333.34 46.6322V48.7871ZM1340.58 46.977L1341.66 48.8419C1344.11 47.4256 1346.29 45.4839 1348.22 43.0599L1346.53 41.719L1344.84 40.3782C1343.21 42.4363 1341.43 44 1339.5 45.1121L1340.58 46.977ZM1346.53 41.719L1345.1 43.3266L1357.94 54.7907L1359.37 53.1831L1360.81 51.5754L1347.97 40.1114L1346.53 41.719ZM1359.37 53.1831L1357.67 51.8618C1354.9 55.4288 1351.39 58.2042 1347.09 60.1916L1348 62.1474L1348.9 64.1032C1353.8 61.8383 1357.87 58.6375 1361.08 54.5043L1359.37 53.1831ZM1348 62.1474L1347.1 60.1865C1342.89 62.1058 1337.98 63.0955 1332.31 63.0955V65.2504V67.4053C1338.48 67.4053 1344.02 66.3264 1348.89 64.1083L1348 62.1474ZM1383.1 63.8713H1385.26V19.3082H1383.1H1380.95V63.8713H1383.1ZM1383.1 19.3082V17.1533H1365.43V19.3082V21.4631H1383.1V19.3082ZM1365.43 19.3082H1367.59V3.5344H1365.43H1363.28V19.3082H1365.43ZM1365.43 3.5344V5.68929H1421.11V3.5344V1.37951H1365.43V3.5344ZM1421.11 3.5344H1418.96V19.3082H1421.11H1423.27V3.5344H1421.11ZM1421.11 19.3082V17.1533H1403.44V19.3082V21.4631H1421.11V19.3082ZM1403.44 19.3082H1401.29V63.8713H1403.44H1405.6V19.3082H1403.44ZM1403.44 63.8713V61.7164H1383.1V63.8713V66.0262H1403.44V63.8713ZM1454.07 65.2504V63.0955C1449.17 63.0955 1444.46 62.5398 1439.92 61.433L1439.41 63.5265L1438.9 65.62C1443.79 66.8118 1448.84 67.4053 1454.07 67.4053V65.2504ZM1439.41 63.5265L1439.92 61.433C1435.35 60.3181 1431.69 58.8928 1428.89 57.1996L1427.78 59.0444L1426.66 60.8891C1429.95 62.8736 1434.05 64.4364 1438.9 65.62L1439.41 63.5265ZM1427.78 59.0444L1429.75 59.9153L1436.3 45.0896L1434.33 44.2187L1432.36 43.3478L1425.8 58.1734L1427.78 59.0444ZM1434.33 44.2187L1433.25 46.0828C1436.28 47.8434 1439.63 49.2586 1443.28 50.3367L1443.89 48.2699L1444.5 46.2031C1441.15 45.2125 1438.12 43.9269 1435.41 42.3547L1434.33 44.2187ZM1443.89 48.2699L1443.32 50.3481C1447.05 51.3704 1450.69 51.8901 1454.24 51.8901V49.7352V47.5803C1451.12 47.5803 1447.86 47.1231 1444.46 46.1917L1443.89 48.2699ZM1454.24 49.7352V51.8901C1456.25 51.8901 1457.94 51.7743 1459.25 51.4991L1458.81 49.3904L1458.36 47.2818C1457.49 47.4663 1456.14 47.5803 1454.24 47.5803V49.7352ZM1458.81 49.3904L1459.33 51.481C1460.61 51.1616 1461.84 50.681 1462.74 49.8805L1461.31 48.2699L1459.87 46.6593C1459.74 46.7782 1459.3 47.0447 1458.28 47.2999L1458.81 49.3904ZM1461.31 48.2699L1462.83 49.7936C1463.72 48.8996 1464.24 47.7582 1464.24 46.4598H1462.08H1459.93C1459.93 46.5405 1459.92 46.6059 1459.78 46.7462L1461.31 48.2699ZM1462.08 46.4598H1464.24C1464.24 44.3553 1462.98 42.8598 1461.27 41.9651L1460.27 43.8739L1459.27 45.7828C1459.66 45.9845 1459.81 46.1524 1459.86 46.2302C1459.9 46.2847 1459.93 46.3383 1459.93 46.4598H1462.08ZM1460.27 43.8739L1461.27 41.9651C1459.82 41.2027 1457.99 40.6337 1455.87 40.2094L1455.44 42.3224L1455.02 44.4355C1456.92 44.8156 1458.31 45.2809 1459.27 45.7828L1460.27 43.8739ZM1455.44 42.3224L1455.94 40.2248C1453.95 39.7577 1451.77 39.2923 1449.39 38.8283L1448.98 40.9433L1448.57 43.0583C1450.9 43.5137 1453.03 43.9677 1454.95 44.42L1455.44 42.3224ZM1448.98 40.9433L1449.44 38.8385C1447.16 38.3385 1444.85 37.6983 1442.51 36.9165L1441.83 38.9608L1441.14 41.0051C1443.63 41.8323 1446.08 42.5137 1448.52 43.0481L1448.98 40.9433ZM1441.83 38.9608L1442.52 36.9215C1440.33 36.1736 1438.31 35.1893 1436.46 33.9707L1435.27 35.7715L1434.09 37.5724C1436.26 38.9972 1438.61 40.139 1441.13 41.0001L1441.83 38.9608ZM1435.27 35.7715L1436.48 33.9867C1434.81 32.8578 1433.46 31.3847 1432.41 29.5361L1430.53 30.5998L1428.66 31.6635C1430.02 34.0672 1431.83 36.042 1434.07 37.5564L1435.27 35.7715ZM1430.53 30.5998L1432.42 29.5575C1431.43 27.7723 1430.88 25.4537 1430.88 22.4974H1428.72H1426.57C1426.57 25.9771 1427.22 29.06 1428.65 31.6421L1430.53 30.5998ZM1428.72 22.4974H1430.88C1430.88 19.1874 1431.79 16.22 1433.61 13.5371L1431.83 12.3263L1430.04 11.1156C1427.73 14.5238 1426.57 18.3372 1426.57 22.4974H1428.72ZM1431.83 12.3263L1433.6 13.5444C1435.46 10.8319 1438.25 8.5927 1442.1 6.8827L1441.22 4.91353L1440.35 2.94437C1435.92 4.91205 1432.44 7.61475 1430.05 11.1083L1431.83 12.3263ZM1441.22 4.91353L1442.09 6.88713C1445.93 5.20226 1450.82 4.31016 1456.82 4.31016V2.15527V0.000384092C1450.42 0.000384092 1444.9 0.947127 1440.36 2.93994L1441.22 4.91353ZM1456.82 2.15527V4.31016C1460.75 4.31016 1464.62 4.72483 1468.43 5.55391L1468.89 3.44821L1469.35 1.3425C1465.23 0.447669 1461.06 0.000384092 1456.82 0.000384092V2.15527ZM1468.89 3.44821L1468.43 5.55391C1472.21 6.37548 1475.57 7.62647 1478.52 9.29044L1479.58 7.4132L1480.64 5.53597C1477.27 3.63718 1473.5 2.24484 1469.35 1.3425L1468.89 3.44821ZM1479.58 7.4132L1477.59 6.58687L1471.47 21.3263L1473.46 22.1526L1475.45 22.979L1481.57 8.23954L1479.58 7.4132ZM1473.46 22.1526L1474.42 20.2253C1471.32 18.6749 1468.28 17.4979 1465.31 16.7082L1464.75 18.791L1464.2 20.8739C1466.86 21.5782 1469.62 22.6423 1472.5 24.08L1473.46 22.1526ZM1464.75 18.791L1465.32 16.7111C1462.39 15.9183 1459.5 15.5156 1456.65 15.5156V17.6705V19.8254C1459.09 19.8254 1461.6 20.1697 1464.19 20.871L1464.75 18.791ZM1456.65 17.6705V15.5156C1454.6 15.5156 1452.81 15.6928 1451.38 16.1236L1452 18.1876L1452.62 20.2517C1453.48 19.9929 1454.79 19.8254 1456.65 19.8254V17.6705ZM1452 18.1876L1451.38 16.1236C1450.04 16.5244 1448.78 17.1373 1447.9 18.1252L1449.5 19.5668L1451.1 21.0083C1451.24 20.847 1451.65 20.5404 1452.62 20.2517L1452 18.1876ZM1449.5 19.5668L1447.81 18.2206C1447.07 19.1498 1446.65 20.25 1446.65 21.4631H1448.81H1450.96C1450.96 21.297 1451 21.133 1451.18 20.9129L1449.5 19.5668ZM1448.81 21.4631H1446.65C1446.65 23.5572 1447.96 25.005 1449.62 25.8716L1450.62 23.9628L1451.62 22.0539C1451.22 21.8444 1451.06 21.6739 1451.01 21.5998C1450.97 21.553 1450.96 21.5289 1450.96 21.4631H1448.81ZM1450.62 23.9628L1449.69 25.9083C1451.11 26.5844 1452.87 27.1168 1454.92 27.5387L1455.36 25.4281L1455.79 23.3175C1453.93 22.9349 1452.54 22.4903 1451.54 22.0172L1450.62 23.9628ZM1455.36 25.4281L1454.94 27.5411C1456.95 27.9441 1459.14 28.3758 1461.5 28.836L1461.91 26.721L1462.32 24.606C1459.97 24.1468 1457.79 23.7165 1455.78 23.315L1455.36 25.4281ZM1461.91 26.721L1461.51 28.8378C1463.82 29.2784 1466.11 29.8844 1468.37 30.6566L1469.06 28.6173L1469.76 26.578C1467.31 25.7413 1464.83 25.0831 1462.31 24.6042L1461.91 26.721ZM1469.06 28.6173L1468.37 30.6566C1470.55 31.4027 1472.53 32.3826 1474.32 33.5914L1475.53 31.8066L1476.74 30.0217C1474.61 28.5871 1472.29 27.4409 1469.76 26.578L1469.06 28.6173ZM1475.53 31.8066L1474.34 33.6074C1476.07 34.7385 1477.44 36.2079 1478.48 38.042L1480.35 36.9783L1482.23 35.9146C1480.86 33.4964 1479.01 31.518 1476.71 30.0057L1475.53 31.8066ZM1480.35 36.9783L1478.48 38.042C1479.46 39.7623 1480.01 42.0141 1480.01 44.9083H1482.16H1484.32C1484.32 41.4814 1483.67 38.4466 1482.23 35.9146L1480.35 36.9783ZM1482.16 44.9083H1480.01C1480.01 48.1408 1479.08 51.1082 1477.2 53.8613L1478.98 55.0794L1480.75 56.2974C1483.12 52.8444 1484.32 49.0312 1484.32 44.9083H1482.16ZM1478.98 55.0794L1477.19 53.8686C1475.39 56.5198 1472.63 58.7623 1468.77 60.5332L1469.67 62.4922L1470.56 64.4511C1474.98 62.4294 1478.42 59.7301 1480.76 56.2902L1478.98 55.0794ZM1469.67 62.4922L1468.79 60.523C1465.01 62.202 1460.14 63.0955 1454.07 63.0955V65.2504V67.4053C1460.52 67.4053 1466.04 66.4601 1470.54 64.4613L1469.67 62.4922Z" fill="#6E38D9" mask="url(#path-1-outside-1_840_1683)"/>
</svg>
