<svg width="44" height="44" viewBox="0 0 44 44" fill="none" xmlns="http://www.w3.org/2000/svg">
<g clip-path="url(#clip0_1169_793)">
<path d="M17.2766 6.40102C16.2644 2.40102 17.6377 -1.78564 22 -1.78564C26.3622 -1.78564 27.7356 2.40102 26.7234 6.40102C26.3307 7.95304 25.6761 10.6814 25.0221 13.4395C24.2225 16.8112 23.8227 18.497 24.77 19.4443C25.7173 20.3916 27.4032 19.9918 30.7749 19.1922C33.533 18.5382 36.2613 17.8836 37.8133 17.4909C41.8133 16.4788 46 17.8521 46 22.2143C46 26.5766 41.8133 27.95 37.8133 26.9378C36.2613 26.545 33.533 25.8905 30.7749 25.2364C27.4032 24.4369 25.7174 24.0371 24.7701 24.9844C23.8228 25.9317 24.2225 27.6175 25.0221 30.9892C25.6762 33.7474 26.3307 36.4757 26.7234 38.0277C27.7356 42.0277 26.3623 46.2144 22 46.2144C17.6378 46.2144 16.2644 42.0277 17.2766 38.0277C17.6693 36.4757 18.3239 33.7474 18.9779 30.9892C19.7775 27.6176 20.1773 25.9317 19.23 24.9844C18.2827 24.0371 16.5968 24.4369 13.2251 25.2365C10.467 25.8905 7.73869 26.5451 6.18667 26.9378C2.18667 27.95 -2 26.5767 -2 22.2144C-2 17.8521 2.18667 16.4787 6.18667 17.4909C7.73869 17.8837 10.467 18.5382 13.2251 19.1923C16.5968 19.9918 18.2826 20.3916 19.2299 19.4443C20.1772 18.497 19.7775 16.8112 18.9779 13.4395C18.3238 10.6814 17.6693 7.95305 17.2766 6.40102Z" fill="#A9FCFF"/>
<path d="M10 15.7344C13.0486 15.7344 15.52 13.263 15.52 10.2144C15.52 7.16574 13.0486 4.69436 10 4.69436C6.95139 4.69436 4.48 7.16574 4.48 10.2144C4.48 13.263 6.95139 15.7344 10 15.7344Z" fill="#A9FCFF"/>
<path d="M34 15.7344C37.0486 15.7344 39.52 13.263 39.52 10.2144C39.52 7.16574 37.0486 4.69436 34 4.69436C30.9514 4.69436 28.48 7.16574 28.48 10.2144C28.48 13.263 30.9514 15.7344 34 15.7344Z" fill="#A9FCFF"/>
<path d="M15.52 34.2144C15.52 37.263 13.0486 39.7344 10 39.7344C6.95139 39.7344 4.48 37.263 4.48 34.2144C4.48 31.1657 6.95139 28.6944 10 28.6944C13.0486 28.6944 15.52 31.1657 15.52 34.2144Z" fill="#A9FCFF"/>
<path d="M34 39.7344C37.0486 39.7344 39.52 37.263 39.52 34.2144C39.52 31.1657 37.0486 28.6944 34 28.6944C30.9514 28.6944 28.48 31.1657 28.48 34.2144C28.48 37.263 30.9514 39.7344 34 39.7344Z" fill="#A9FCFF"/>
</g>
<defs>
<clipPath id="clip0_1169_793">
<rect width="48" height="48" fill="white" transform="translate(-2 -1.78564)"/>
</clipPath>
</defs>
</svg>
