<svg width="48" height="48" viewBox="0 0 48 48" fill="none" xmlns="http://www.w3.org/2000/svg">
<rect width="48" height="48" rx="24" fill="#6E38D9"/>
<path d="M32.9996 23.9999C32.9996 24.1988 32.9206 24.3896 32.7799 24.5303C32.6393 24.6709 32.4485 24.7499 32.2496 24.7499H17.5599L23.0302 30.2193C23.0999 30.289 23.1552 30.3717 23.1929 30.4628C23.2306 30.5538 23.25 30.6514 23.25 30.7499C23.25 30.8485 23.2306 30.9461 23.1929 31.0371C23.1552 31.1281 23.0999 31.2109 23.0302 31.2806C22.9606 31.3502 22.8778 31.4055 22.7868 31.4432C22.6957 31.4809 22.5982 31.5003 22.4996 31.5003C22.4011 31.5003 22.3035 31.4809 22.2124 31.4432C22.1214 31.4055 22.0387 31.3502 21.969 31.2806L15.219 24.5306C15.1493 24.4609 15.0939 24.3782 15.0562 24.2871C15.0185 24.1961 14.999 24.0985 14.999 23.9999C14.999 23.9014 15.0185 23.8038 15.0562 23.7127C15.0939 23.6217 15.1493 23.539 15.219 23.4693L21.969 16.7193C22.1097 16.5786 22.3006 16.4995 22.4996 16.4995C22.6986 16.4995 22.8895 16.5786 23.0302 16.7193C23.171 16.86 23.25 17.0509 23.25 17.2499C23.25 17.449 23.171 17.6398 23.0302 17.7806L17.5599 23.2499H32.2496C32.4485 23.2499 32.6393 23.3289 32.7799 23.4696C32.9206 23.6103 32.9996 23.801 32.9996 23.9999Z" fill="white"/>
</svg>
