<svg width="32" height="32" viewBox="0 0 32 32" fill="none" xmlns="http://www.w3.org/2000/svg">
<path d="M28.4138 9.17171L22.8288 3.58546C22.643 3.39969 22.4225 3.25233 22.1799 3.1518C21.9372 3.05126 21.6771 2.99951 21.4144 2.99951C21.1517 2.99951 20.8916 3.05126 20.6489 3.1518C20.4062 3.25233 20.1857 3.39969 20 3.58546L4.58626 19.0005C4.39973 19.1855 4.25185 19.4058 4.15121 19.6485C4.05057 19.8912 3.99917 20.1515 4.00001 20.4142V26.0005C4.00001 26.5309 4.21072 27.0396 4.5858 27.4147C4.96087 27.7897 5.46958 28.0005 6.00001 28.0005H11.5863C11.849 28.0013 12.1093 27.9499 12.352 27.8493C12.5947 27.7486 12.815 27.6007 13 27.4142L28.4138 12.0005C28.5995 11.8147 28.7469 11.5942 28.8474 11.3516C28.948 11.1089 28.9997 10.8488 28.9997 10.5861C28.9997 10.3234 28.948 10.0633 28.8474 9.82061C28.7469 9.57793 28.5995 9.35743 28.4138 9.17171ZM6.41376 20.0005L17 9.41421L19.0863 11.5005L8.50001 22.0855L6.41376 20.0005ZM6.00001 22.4142L9.58626 26.0005H6.00001V22.4142ZM12 25.5867L9.91376 23.5005L20.5 12.9142L22.5863 15.0005L12 25.5867ZM24 13.5867L18.4138 8.00046L21.4138 5.00046L27 10.5855L24 13.5867Z" fill="#014F51"/>
</svg>
