<svg width="32" height="31" viewBox="0 0 32 31" fill="none" xmlns="http://www.w3.org/2000/svg">
<path d="M0.34841 1.89416C0.0254209 0.90009 -0.136073 0.403053 0.143511 0.136713C0.423095 -0.129628 0.944845 0.0242167 1.98835 0.331906L10.1458 2.73722C11.3855 3.10277 12.3561 4.02742 12.7399 5.20843L15.9999 15.242L5.46741 12.1364C4.22768 11.7708 3.25706 10.8462 2.87333 9.66519L0.34841 1.89416Z" fill="#0EA7AC"/>
<path d="M16.0003 15.2421L26.5325 18.3477C27.7723 18.7132 28.7429 19.6379 29.1266 20.8189L31.6515 28.5899C31.9745 29.584 32.136 30.081 31.8564 30.3474C31.5769 30.6137 31.0551 30.4599 30.0116 30.1522L21.8542 27.7468C20.6144 27.3813 19.6438 26.4567 19.2601 25.2756L16.0001 15.2423L12.7401 25.2758C12.3564 26.4568 11.3858 27.3814 10.146 27.747L1.98859 30.1523C0.945092 30.46 0.423341 30.6138 0.143757 30.3475C-0.135827 30.0812 0.0256675 29.5841 0.348656 28.5901L2.87358 20.819C3.2573 19.638 4.22792 18.7134 5.46766 18.3478L16.0001 15.2422L19.2601 5.20858C19.6439 4.02756 20.6145 3.10292 21.8542 2.73737L30.0117 0.332052C31.0552 0.0243626 31.5769 -0.129482 31.8565 0.136858C32.1361 0.403199 31.9746 0.900235 31.6516 1.89431L29.1267 9.66534C28.7429 10.8463 27.7723 11.771 26.5326 12.1365L16.0003 15.2421Z" fill="#0EA7AC"/>
</svg>
