<svg width="200" height="200" viewBox="0 0 200 200" fill="none" xmlns="http://www.w3.org/2000/svg">
<g clip-path="url(#clip0_1303_110)">
<g clip-path="url(#clip1_1303_110)">
<path d="M117.04 157.54C127.808 159.852 134.453 163.427 134.453 168.512C134.453 173.598 127.808 177.172 117.04 179.485C125.149 186.605 129.024 192.858 126.348 197.262C123.673 201.667 116.037 201.604 105.495 198.49C108.772 208.509 108.838 215.766 104.204 218.309C99.5694 220.852 92.9896 217.169 85.4983 209.462C83.0652 219.696 79.3043 226.012 73.9531 226.012C68.6021 226.012 64.8413 219.697 62.4081 209.463C54.9173 217.169 48.3378 220.852 43.7037 218.309C39.0695 215.766 39.1352 208.509 42.4119 198.49C31.8701 201.604 24.2347 201.667 21.5592 197.262C18.8836 192.858 22.7581 186.605 30.8667 179.485C20.0986 177.173 13.4531 173.598 13.4531 168.512C13.4531 163.426 20.0986 159.852 30.8667 157.54C22.7581 150.42 18.8836 144.167 21.5592 139.762C24.2347 135.358 31.8701 135.42 42.4119 138.535C39.1352 128.516 39.0695 121.259 43.7037 118.716C48.3378 116.173 54.9173 119.855 62.4081 127.562C64.8413 117.328 68.6021 111.012 73.9531 111.012C79.3043 111.012 83.0652 117.328 85.4983 127.563C92.9896 119.856 99.5694 116.173 104.204 118.716C108.838 121.259 108.772 128.516 105.495 138.535C116.037 135.42 123.673 135.358 126.348 139.762C129.024 144.167 125.149 150.42 117.04 157.54Z" fill="#3F1390"/>
</g>
<path d="M119.235 118.656C119.235 118.622 119.234 118.605 119.234 118.598C119.219 113.366 126.371 111.197 129.264 115.556C129.268 115.563 129.277 115.577 129.296 115.605C129.345 115.68 129.37 115.717 129.393 115.752C142.883 136.164 166.655 148.106 192.194 147.301C192.237 147.3 192.284 147.298 192.377 147.295C192.412 147.294 192.43 147.294 192.438 147.293C197.899 147.131 199.96 153.927 195.328 156.825C195.321 156.829 195.306 156.839 195.276 156.857C195.197 156.907 195.158 156.931 195.121 156.954C173.436 170.468 160.3 193.602 160.418 218.069C160.418 218.111 160.418 218.155 160.419 218.245C160.419 218.279 160.419 218.296 160.419 218.303C160.434 223.535 153.283 225.704 150.39 221.345C150.386 221.338 150.376 221.324 150.358 221.296C150.308 221.221 150.284 221.184 150.261 221.149C136.77 200.737 112.998 188.795 87.4601 189.6C87.4163 189.601 87.3697 189.603 87.2766 189.606C87.2412 189.607 87.2236 189.607 87.2154 189.608C81.7546 189.77 79.6938 182.974 84.3252 180.076C84.3321 180.072 84.3471 180.062 84.3772 180.044C84.4563 179.994 84.4959 179.97 84.5331 179.947C106.218 166.433 119.354 143.299 119.236 118.832C119.236 118.79 119.235 118.746 119.235 118.656Z" fill="#6E38D9"/>
<g clip-path="url(#clip2_1303_110)">
<path d="M103.066 161.752C100.514 153.127 103.976 143.064 114.973 143.064C125.969 143.064 129.431 153.127 126.88 161.752C124.995 168.121 119.865 183.113 117.31 190.52C117.018 191.367 117.595 192.257 118.46 192.599C119.326 192.942 120.369 192.687 120.793 191.892C124.496 184.938 132.023 170.888 135.43 165.118C140.042 157.304 149.977 152.516 157.752 159.906C165.528 167.296 160.49 176.738 152.269 181.122C146.197 184.359 131.414 191.513 124.098 195.033C123.261 195.435 122.993 196.427 123.353 197.25C123.714 198.072 124.65 198.621 125.542 198.343C133.334 195.915 149.109 191.039 155.81 189.248C164.885 186.823 175.473 190.113 175.473 200.564C175.473 211.016 164.885 214.306 155.81 211.881C149.109 210.09 133.334 205.214 125.541 202.786C124.65 202.508 123.714 203.056 123.353 203.879C122.993 204.702 123.261 205.693 124.098 206.096C131.414 209.616 146.197 216.769 152.269 220.007C160.49 224.391 165.528 233.833 157.753 241.223C149.977 248.613 140.042 243.825 135.43 236.011C132.023 230.241 124.496 216.191 120.793 209.237C120.369 208.442 119.326 208.187 118.46 208.529C117.595 208.872 117.018 209.762 117.31 210.609C119.865 218.016 124.996 233.008 126.88 239.377C129.431 248.002 125.969 258.064 114.973 258.064C103.976 258.064 100.514 248.002 103.066 239.377C104.95 233.008 110.081 218.016 112.636 210.609C112.928 209.762 112.351 208.872 111.485 208.529C110.619 208.187 109.576 208.442 109.153 209.237C105.449 216.191 97.9223 230.241 94.5158 236.011C89.903 243.825 79.9686 248.613 72.1928 241.223C64.4171 233.833 69.4555 224.391 77.6767 220.007C83.748 216.769 98.531 209.616 105.848 206.096C106.684 205.693 106.953 204.702 106.592 203.879C106.231 203.056 105.295 202.508 104.404 202.786C96.611 205.214 80.8367 210.09 74.1352 211.881C65.0602 214.306 54.4727 211.016 54.4727 200.564C54.4727 190.113 65.0602 186.823 74.1352 189.248C80.8367 191.039 96.611 195.915 104.404 198.343C105.295 198.621 106.231 198.072 106.592 197.25C106.953 196.427 106.684 195.435 105.848 195.033C98.531 191.513 83.7479 184.359 77.6767 181.122C69.4555 176.738 64.417 167.296 72.1927 159.906C79.9684 152.516 89.903 157.304 94.5158 165.118C97.9222 170.888 105.449 184.938 109.153 191.892C109.576 192.687 110.619 192.942 111.485 192.599C112.351 192.257 112.928 191.367 112.636 190.52C110.081 183.113 104.95 168.121 103.066 161.752Z" fill="#2FC9CE"/>
</g>
<path d="M52.6973 84.931C54.9734 93.8373 58.2703 100.436 63.4404 105.352C68.572 110.231 75.4625 113.369 84.7861 115.544C75.4598 117.719 68.5684 120.859 63.4365 125.739C58.2666 130.654 54.9703 137.252 52.6963 146.158C50.4202 137.252 47.1238 130.653 41.9541 125.737C36.8227 120.857 29.9324 117.718 20.6094 115.544C29.9348 113.369 36.8265 110.231 41.958 105.352C47.1281 100.436 50.4232 93.8372 52.6973 84.931Z" fill="#E3FEFF" stroke="#272827" stroke-width="1.83486"/>
</g>
<defs>
<clipPath id="clip0_1303_110">
<rect width="200" height="200" fill="white"/>
</clipPath>
<clipPath id="clip1_1303_110">
<rect width="120.758" height="114.648" fill="white" transform="translate(13.4531 111.012)"/>
</clipPath>
<clipPath id="clip2_1303_110">
<rect width="120.758" height="114.648" fill="white" transform="translate(54.4727 143.064)"/>
</clipPath>
</defs>
</svg>
