<svg width="48" height="48" viewBox="0 0 48 48" fill="none" xmlns="http://www.w3.org/2000/svg">
<g clip-path="url(#clip0_1175_449)">
<path d="M6.48 47.9997C2.3199 41.4475 9.15527e-07 32.8949 0 23.9998C0 15.1048 2.3199 6.55215 6.48 0V47.9997Z" fill="#0EA7AC"/>
<path d="M48 48C41.6348 48 35.5303 45.4714 31.0294 40.9706C26.5286 36.4697 24 30.3652 24 24C24 17.6348 26.5286 11.5303 31.0294 7.02944C35.5303 2.52857 41.6348 2.28842e-06 48 1.04907e-06L48 48Z" fill="#0EA7AC"/>
<path d="M14.4694 42.1163C16.9224 44.735 19.8518 46.7282 23.04 47.9999V0C19.8518 1.27171 16.9224 3.26494 14.4694 5.88356C9.96856 10.6883 7.44 17.205 7.44 24C7.44 30.7949 9.96856 37.3116 14.4694 42.1163Z" fill="#0EA7AC"/>
</g>
<defs>
<clipPath id="clip0_1175_449">
<rect width="48" height="48" fill="white"/>
</clipPath>
</defs>
</svg>
