<svg width="48" height="48" viewBox="0 0 48 48" fill="none" xmlns="http://www.w3.org/2000/svg">
<rect width="48" height="48" rx="24" fill="#6E38D9"/>
<path d="M32.7806 24.5306L26.0306 31.2806C25.8899 31.4213 25.699 31.5003 25.5 31.5003C25.301 31.5003 25.1101 31.4213 24.9694 31.2806C24.8286 31.1398 24.7496 30.949 24.7496 30.7499C24.7496 30.5509 24.8286 30.36 24.9694 30.2193L30.4397 24.7499H15.75C15.5511 24.7499 15.3603 24.6709 15.2197 24.5303C15.079 24.3896 15 24.1988 15 23.9999C15 23.801 15.079 23.6103 15.2197 23.4696C15.3603 23.3289 15.5511 23.2499 15.75 23.2499H30.4397L24.9694 17.7806C24.8286 17.6398 24.7496 17.449 24.7496 17.2499C24.7496 17.0509 24.8286 16.86 24.9694 16.7193C25.1101 16.5786 25.301 16.4995 25.5 16.4995C25.699 16.4995 25.8899 16.5786 26.0306 16.7193L32.7806 23.4693C32.8504 23.539 32.9057 23.6217 32.9434 23.7127C32.9812 23.8038 33.0006 23.9014 33.0006 23.9999C33.0006 24.0985 32.9812 24.1961 32.9434 24.2871C32.9057 24.3782 32.8504 24.4609 32.7806 24.5306Z" fill="white"/>
</svg>
